<svg width="1440" height="5118" viewBox="0 0 1440 5118" fill="none" xmlns="http://www.w3.org/2000/svg">
<g opacity="0.15" filter="url(#filter0_d_48_2375)">
<path fill-rule="evenodd" clip-rule="evenodd" d="M166.5 381C271.71 381 357 295.71 357 190.5C357 85.2898 271.71 0 166.5 0C61.2898 0 -24 85.2898 -24 190.5C-24 295.71 61.2898 381 166.5 381ZM166.5 282C217.034 282 258 241.034 258 190.5C258 139.966 217.034 99 166.5 99C115.966 99 75 139.966 75 190.5C75 241.034 115.966 282 166.5 282Z" fill="url(#paint0_linear_48_2375)"/>
<path fill-rule="evenodd" clip-rule="evenodd" d="M1226.5 4433C1331.71 4433 1417 4347.71 1417 4242.5C1417 4137.29 1331.71 4052 1226.5 4052C1121.29 4052 1036 4137.29 1036 4242.5C1036 4347.71 1121.29 4433 1226.5 4433ZM1226.5 4334C1277.03 4334 1318 4293.03 1318 4242.5C1318 4191.97 1277.03 4151 1226.5 4151C1175.97 4151 1135 4191.97 1135 4242.5C1135 4293.03 1175.97 4334 1226.5 4334Z" fill="url(#paint1_linear_48_2375)"/>
<path fill-rule="evenodd" clip-rule="evenodd" d="M257.5 5321C362.71 5321 448 5235.71 448 5130.5C448 5025.29 362.71 4940 257.5 4940C152.29 4940 67 5025.29 67 5130.5C67 5235.71 152.29 5321 257.5 5321ZM257.5 5222C308.034 5222 349 5181.03 349 5130.5C349 5079.97 308.034 5039 257.5 5039C206.966 5039 166 5079.97 166 5130.5C166 5181.03 206.966 5222 257.5 5222Z" fill="url(#paint2_linear_48_2375)"/>
<path d="M616.362 1803.47L676.862 2162.13L336 2035.2L616.362 1803.47Z" fill="url(#paint3_linear_48_2375)"/>
<rect x="571.935" y="3358" width="245.42" height="245.42" transform="rotate(22.2518 571.935 3358)" fill="url(#paint4_linear_48_2375)"/>
<rect x="782.935" y="1208" width="245.42" height="245.42" transform="rotate(22.2518 782.935 1208)" fill="url(#paint5_linear_48_2375)"/>
<rect x="42.5029" y="4079" width="245.42" height="245.42" transform="rotate(36.9431 42.5029 4079)" fill="url(#paint6_linear_48_2375)"/>
<rect x="1232.94" y="65" width="245.42" height="245.42" transform="rotate(22.2518 1232.94 65)" fill="url(#paint7_linear_48_2375)"/>
<path d="M1560.36 4740.47L1620.86 5099.13L1280 4972.2L1560.36 4740.47Z" fill="url(#paint8_linear_48_2375)"/>
<path fill-rule="evenodd" clip-rule="evenodd" d="M127.5 3118C232.71 3118 318 3032.71 318 2927.5C318 2822.29 232.71 2737 127.5 2737C22.2898 2737 -63 2822.29 -63 2927.5C-63 3032.71 22.2898 3118 127.5 3118ZM127.5 3019C178.034 3019 219 2978.03 219 2927.5C219 2876.97 178.034 2836 127.5 2836C76.9659 2836 36 2876.97 36 2927.5C36 2978.03 76.9659 3019 127.5 3019Z" fill="url(#paint9_linear_48_2375)"/>
<path fill-rule="evenodd" clip-rule="evenodd" d="M1339.5 1918C1444.71 1918 1530 1832.71 1530 1727.5C1530 1622.29 1444.71 1537 1339.5 1537C1234.29 1537 1149 1622.29 1149 1727.5C1149 1832.71 1234.29 1918 1339.5 1918ZM1339.5 1819C1390.03 1819 1431 1778.03 1431 1727.5C1431 1676.97 1390.03 1636 1339.5 1636C1288.97 1636 1248 1676.97 1248 1727.5C1248 1778.03 1288.97 1819 1339.5 1819Z" fill="url(#paint10_linear_48_2375)"/>
<path d="M179.362 747.469L239.862 1106.13L-101 979.195L179.362 747.469Z" fill="url(#paint11_linear_48_2375)"/>
<path d="M1426.36 2830.47L1486.86 3189.13L1146 3062.2L1426.36 2830.47Z" fill="url(#paint12_linear_48_2375)"/>
</g>
<defs>
<filter id="filter0_d_48_2375" x="-133" y="-33" width="1807.86" height="5403" filterUnits="userSpaceOnUse" color-interpolation-filters="sRGB">
<feFlood flood-opacity="0" result="BackgroundImageFix"/>
<feColorMatrix in="SourceAlpha" type="matrix" values="0 0 0 0 0 0 0 0 0 0 0 0 0 0 0 0 0 0 127 0" result="hardAlpha"/>
<feOffset dx="13" dy="8"/>
<feGaussianBlur stdDeviation="20.5"/>
<feComposite in2="hardAlpha" operator="out"/>
<feColorMatrix type="matrix" values="0 0 0 0 0 0 0 0 0 0 0 0 0 0 0 0 0 0 0.57 0"/>
<feBlend mode="normal" in2="BackgroundImageFix" result="effect1_dropShadow_48_2375"/>
<feBlend mode="normal" in="SourceGraphic" in2="effect1_dropShadow_48_2375" result="shape"/>
</filter>
<linearGradient id="paint0_linear_48_2375" x1="-24" y1="0" x2="357" y2="-3.34193e-07" gradientUnits="userSpaceOnUse">
<stop stop-color="#FEEC02"/>
<stop offset="0.45" stop-color="#DF000C"/>
<stop offset="1" stop-color="#112981"/>
</linearGradient>
<linearGradient id="paint1_linear_48_2375" x1="1036" y1="4052" x2="1417" y2="4052" gradientUnits="userSpaceOnUse">
<stop stop-color="#FEEC02"/>
<stop offset="0.0001" stop-color="#FF2626"/>
<stop offset="1" stop-color="#112981"/>
</linearGradient>
<linearGradient id="paint2_linear_48_2375" x1="161.501" y1="4920" x2="269.001" y2="5305.5" gradientUnits="userSpaceOnUse">
<stop stop-color="#FEEC02"/>
<stop offset="0.321123" stop-color="#DF000C"/>
<stop offset="0.700393" stop-color="#069136"/>
<stop offset="1" stop-color="#112981"/>
</linearGradient>
<linearGradient id="paint3_linear_48_2375" x1="445.931" y1="1740" x2="786.793" y2="1866.94" gradientUnits="userSpaceOnUse">
<stop stop-color="#FEEC02"/>
<stop offset="0.855" stop-color="#DF000C"/>
</linearGradient>
<linearGradient id="paint4_linear_48_2375" x1="571.935" y1="3358" x2="817.355" y2="3358" gradientUnits="userSpaceOnUse">
<stop stop-color="#FEEC02"/>
<stop offset="0.995" stop-color="#DF000C"/>
</linearGradient>
<linearGradient id="paint5_linear_48_2375" x1="782.935" y1="1208" x2="1028.36" y2="1208" gradientUnits="userSpaceOnUse">
<stop stop-color="#FEEC02"/>
<stop offset="0.525" stop-color="#069136"/>
<stop offset="1" stop-color="#112981"/>
</linearGradient>
<linearGradient id="paint6_linear_48_2375" x1="42.5029" y1="4079" x2="287.923" y2="4079" gradientUnits="userSpaceOnUse">
<stop stop-color="#FEEC02"/>
<stop offset="0.455" stop-color="#DF000C"/>
<stop offset="1" stop-color="#112981"/>
</linearGradient>
<linearGradient id="paint7_linear_48_2375" x1="1232.94" y1="65" x2="1478.36" y2="65" gradientUnits="userSpaceOnUse">
<stop stop-color="#DF000C"/>
<stop offset="1" stop-color="#112981"/>
</linearGradient>
<linearGradient id="paint8_linear_48_2375" x1="1389.93" y1="4677" x2="1730.79" y2="4803.94" gradientUnits="userSpaceOnUse">
<stop stop-color="#FEEC02"/>
<stop offset="0.425" stop-color="#DF000C"/>
<stop offset="1" stop-color="#112981"/>
</linearGradient>
<linearGradient id="paint9_linear_48_2375" x1="-63" y1="2737" x2="318" y2="2737" gradientUnits="userSpaceOnUse">
<stop stop-color="#FEEC02"/>
<stop offset="0.923624" stop-color="#DF000C"/>
</linearGradient>
<linearGradient id="paint10_linear_48_2375" x1="1149" y1="1537" x2="1530" y2="1537" gradientUnits="userSpaceOnUse">
<stop stop-color="#FEEC02"/>
<stop offset="0.515" stop-color="#069136"/>
<stop offset="1" stop-color="#112981"/>
</linearGradient>
<linearGradient id="paint11_linear_48_2375" x1="8.93115" y1="684" x2="349.793" y2="810.938" gradientUnits="userSpaceOnUse">
<stop offset="0.14" stop-color="#FEEC02"/>
<stop offset="0.482564" stop-color="#069136"/>
<stop offset="1" stop-color="#112981"/>
</linearGradient>
<linearGradient id="paint12_linear_48_2375" x1="1255.93" y1="2767" x2="1596.79" y2="2893.94" gradientUnits="userSpaceOnUse">
<stop offset="0.09" stop-color="#DF000C"/>
<stop offset="1" stop-color="#112981"/>
</linearGradient>
</defs>
</svg>
