<svg width="2421" height="1367" viewBox="0 0 2421 1367" fill="none" xmlns="http://www.w3.org/2000/svg">
<rect x="299" width="1821.72" height="1075" rx="248.522" fill="url(#paint0_linear_113_172)"/>
<g filter="url(#filter0_d_113_172)">
<path d="M536.166 814.449V835.094H560.93V844.506H536.166V866.062H564.025V875.474H524.404V805.037H564.025V814.449H536.166Z" fill="url(#paint1_linear_113_172)"/>
<path d="M602.142 876.183C597.326 876.183 592.993 875.373 589.141 873.754C585.289 872.067 582.262 869.706 580.061 866.67C577.86 863.633 576.759 860.091 576.759 856.043H589.347C589.622 859.079 590.826 861.576 592.959 863.532C595.16 865.489 598.221 866.467 602.142 866.467C606.2 866.467 609.364 865.523 611.634 863.633C613.904 861.677 615.039 859.181 615.039 856.144C615.039 853.783 614.317 851.86 612.872 850.376C611.497 848.891 609.743 847.745 607.61 846.935C605.547 846.125 602.657 845.248 598.943 844.304C594.265 843.089 590.448 841.875 587.49 840.66C584.601 839.378 582.125 837.422 580.061 834.79C577.997 832.159 576.965 828.651 576.965 824.265C576.965 820.217 577.997 816.675 580.061 813.639C582.125 810.603 585.014 808.275 588.728 806.656C592.443 805.037 596.742 804.227 601.626 804.227C608.573 804.227 614.248 805.947 618.65 809.388C623.122 812.762 625.598 817.417 626.08 823.354H613.079C612.872 820.791 611.634 818.598 609.364 816.776C607.094 814.955 604.102 814.044 600.388 814.044C597.017 814.044 594.265 814.887 592.133 816.574C590.001 818.261 588.934 820.689 588.934 823.861C588.934 826.02 589.588 827.807 590.895 829.224C592.271 830.574 593.99 831.653 596.054 832.463C598.118 833.272 600.938 834.15 604.515 835.094C609.261 836.376 613.113 837.658 616.071 838.94C619.098 840.222 621.643 842.212 623.706 844.911C625.839 847.542 626.905 851.084 626.905 855.537C626.905 859.113 625.908 862.486 623.913 865.658C621.987 868.829 619.132 871.392 615.349 873.349C611.634 875.238 607.232 876.183 602.142 876.183Z" fill="url(#paint2_linear_113_172)"/>
<path d="M636.863 840.154C636.863 833.272 638.48 827.099 641.713 821.634C645.015 816.169 649.452 811.918 655.023 808.882C660.664 805.779 666.82 804.227 673.493 804.227C681.128 804.227 687.904 806.082 693.819 809.793C699.804 813.437 704.137 818.632 706.82 825.379H692.684C690.827 821.668 688.247 818.902 684.946 817.08C681.644 815.258 677.826 814.347 673.493 814.347C668.746 814.347 664.516 815.393 660.801 817.485C657.087 819.576 654.163 822.579 652.031 826.492C649.967 830.405 648.936 834.959 648.936 840.154C648.936 845.349 649.967 849.904 652.031 853.817C654.163 857.73 657.087 860.766 660.801 862.925C664.516 865.017 668.746 866.062 673.493 866.062C677.826 866.062 681.644 865.152 684.946 863.33C688.247 861.508 690.827 858.742 692.684 855.031H706.82C704.137 861.778 699.804 866.973 693.819 870.616C687.904 874.26 681.128 876.081 673.493 876.081C666.751 876.081 660.595 874.563 655.023 871.527C649.452 868.424 645.015 864.139 641.713 858.674C638.48 853.21 636.863 847.036 636.863 840.154Z" fill="url(#paint3_linear_113_172)"/>
<path d="M753.296 876.183C746.624 876.183 740.468 874.665 734.827 871.629C729.255 868.525 724.819 864.241 721.517 858.776C718.284 853.243 716.667 847.036 716.667 840.154C716.667 833.272 718.284 827.099 721.517 821.634C724.819 816.169 729.255 811.918 734.827 808.882C740.468 805.779 746.624 804.227 753.296 804.227C760.038 804.227 766.194 805.779 771.766 808.882C777.406 811.918 781.843 816.169 785.076 821.634C788.309 827.099 789.926 833.272 789.926 840.154C789.926 847.036 788.309 853.243 785.076 858.776C781.843 864.241 777.406 868.525 771.766 871.629C766.194 874.665 760.038 876.183 753.296 876.183ZM753.296 866.164C758.043 866.164 762.273 865.118 765.988 863.026C769.702 860.867 772.591 857.831 774.655 853.918C776.787 849.937 777.853 845.349 777.853 840.154C777.853 834.959 776.787 830.405 774.655 826.492C772.591 822.579 769.702 819.576 765.988 817.485C762.273 815.393 758.043 814.347 753.296 814.347C748.55 814.347 744.32 815.393 740.605 817.485C736.891 819.576 733.967 822.579 731.835 826.492C729.771 830.405 728.739 834.959 728.739 840.154C728.739 845.349 729.771 849.937 731.835 853.918C733.967 857.831 736.891 860.867 740.605 863.026C744.32 865.118 748.55 866.164 753.296 866.164Z" fill="url(#paint4_linear_113_172)"/>
<path d="M813.263 866.164H837.51V875.474H801.5V805.138H813.263V866.164Z" fill="url(#paint5_linear_113_172)"/>
<path d="M890.58 861.103H860.554L855.395 875.474H843.117L868.809 805.037H882.429L908.121 875.474H895.739L890.58 861.103ZM887.278 851.691L875.619 819.003L863.856 851.691H887.278Z" fill="url(#paint6_linear_113_172)"/>
<path d="M992.423 805.138V814.55H973.334V875.474H961.572V814.55H942.38V805.138H992.423Z" fill="url(#paint7_linear_113_172)"/>
<path d="M1016.1 814.449V835.094H1040.86V844.506H1016.1V866.062H1043.96V875.474H1004.34V805.037H1043.96V814.449H1016.1ZM1034.26 790.059L1011.45 801.09V792.589L1034.26 780.242V790.059Z" fill="url(#paint8_linear_113_172)"/>
<path d="M1054.52 840.154C1054.52 833.272 1056.14 827.099 1059.37 821.634C1062.67 816.169 1067.11 811.918 1072.68 808.882C1078.32 805.779 1084.48 804.227 1091.15 804.227C1098.79 804.227 1105.56 806.082 1111.48 809.793C1117.46 813.437 1121.8 818.632 1124.48 825.379H1110.34C1108.49 821.668 1105.91 818.902 1102.61 817.08C1099.3 815.258 1095.49 814.347 1091.15 814.347C1086.41 814.347 1082.18 815.393 1078.46 817.485C1074.75 819.576 1071.82 822.579 1069.69 826.492C1067.63 830.405 1066.6 834.959 1066.6 840.154C1066.6 845.349 1067.63 849.904 1069.69 853.817C1071.82 857.73 1074.75 860.766 1078.46 862.925C1082.18 865.017 1086.41 866.062 1091.15 866.062C1095.49 866.062 1099.3 865.152 1102.61 863.33C1105.91 861.508 1108.49 858.742 1110.34 855.031H1124.48C1121.8 861.778 1117.46 866.973 1111.48 870.616C1105.56 874.26 1098.79 876.081 1091.15 876.081C1084.41 876.081 1078.26 874.563 1072.68 871.527C1067.11 868.424 1062.67 864.139 1059.37 858.674C1056.14 853.21 1054.52 847.036 1054.52 840.154Z" fill="url(#paint9_linear_113_172)"/>
<path d="M1197.16 875.474H1185.4L1150.01 822.95V875.474H1138.25V805.037H1150.01L1185.4 857.46V805.037H1197.16V875.474Z" fill="url(#paint10_linear_113_172)"/>
<path d="M1224.37 805.138V875.474H1212.61V805.138H1224.37Z" fill="url(#paint11_linear_113_172)"/>
<path d="M1235.9 840.154C1235.9 833.272 1237.51 827.099 1240.75 821.634C1244.05 816.169 1248.48 811.918 1254.06 808.882C1259.7 805.779 1265.85 804.227 1272.53 804.227C1280.16 804.227 1286.94 806.082 1292.85 809.793C1298.84 813.437 1303.17 818.632 1305.85 825.379H1291.72C1289.86 821.668 1287.28 818.902 1283.98 817.08C1280.68 815.258 1276.86 814.347 1272.53 814.347C1267.78 814.347 1263.55 815.393 1259.83 817.485C1256.12 819.576 1253.2 822.579 1251.06 826.492C1249 830.405 1247.97 834.959 1247.97 840.154C1247.97 845.349 1249 849.904 1251.06 853.817C1253.2 857.73 1256.12 860.766 1259.83 862.925C1263.55 865.017 1267.78 866.062 1272.53 866.062C1276.86 866.062 1280.68 865.152 1283.98 863.33C1287.28 861.508 1289.86 858.742 1291.72 855.031H1305.85C1303.17 861.778 1298.84 866.973 1292.85 870.616C1286.94 874.26 1280.16 876.081 1272.53 876.081C1265.78 876.081 1259.63 874.563 1254.06 871.527C1248.48 868.424 1244.05 864.139 1240.75 858.674C1237.51 853.21 1235.9 847.036 1235.9 840.154Z" fill="url(#paint12_linear_113_172)"/>
<path d="M1362.85 861.103H1332.83L1327.67 875.474H1315.39L1341.08 805.037H1354.7L1380.39 875.474H1368.01L1362.85 861.103ZM1359.55 851.691L1347.89 819.003L1336.13 851.691H1359.55Z" fill="url(#paint13_linear_113_172)"/>
<path d="M1430.13 814.449V835.094H1454.89V844.506H1430.13V866.062H1457.99V875.474H1418.37V805.037H1457.99V814.449H1430.13Z" fill="url(#paint14_linear_113_172)"/>
<path d="M1496.11 876.183C1491.29 876.183 1486.96 875.373 1483.1 873.754C1479.25 872.067 1476.23 869.706 1474.02 866.67C1471.82 863.633 1470.72 860.091 1470.72 856.043H1483.31C1483.59 859.079 1484.79 861.576 1486.92 863.532C1489.12 865.489 1492.18 866.467 1496.11 866.467C1500.16 866.467 1503.33 865.523 1505.6 863.633C1507.87 861.677 1509 859.181 1509 856.144C1509 853.783 1508.28 851.86 1506.84 850.376C1505.46 848.891 1503.71 847.745 1501.57 846.935C1499.51 846.125 1496.62 845.248 1492.91 844.304C1488.23 843.089 1484.41 841.875 1481.45 840.66C1478.56 839.378 1476.09 837.422 1474.02 834.79C1471.96 832.159 1470.93 828.651 1470.93 824.265C1470.93 820.217 1471.96 816.675 1474.02 813.639C1476.09 810.603 1478.98 808.275 1482.69 806.656C1486.41 805.037 1490.71 804.227 1495.59 804.227C1502.54 804.227 1508.21 805.947 1512.61 809.388C1517.09 812.762 1519.56 817.417 1520.04 823.354H1507.04C1506.84 820.791 1505.6 818.598 1503.33 816.776C1501.06 814.955 1498.07 814.044 1494.35 814.044C1490.98 814.044 1488.23 814.887 1486.1 816.574C1483.96 818.261 1482.9 820.689 1482.9 823.861C1482.9 826.02 1483.55 827.807 1484.86 829.224C1486.23 830.574 1487.95 831.653 1490.02 832.463C1492.08 833.272 1494.9 834.15 1498.48 835.094C1503.22 836.376 1507.08 837.658 1510.03 838.94C1513.06 840.222 1515.61 842.212 1517.67 844.911C1519.8 847.542 1520.87 851.084 1520.87 855.537C1520.87 859.113 1519.87 862.486 1517.88 865.658C1515.95 868.829 1513.1 871.392 1509.31 873.349C1505.6 875.238 1501.2 876.183 1496.11 876.183Z" fill="url(#paint15_linear_113_172)"/>
<path d="M1581.08 805.138V814.55H1561.99V875.474H1550.23V814.55H1531.03V805.138H1581.08Z" fill="url(#paint16_linear_113_172)"/>
<path d="M1636.22 861.103H1606.2L1601.04 875.474H1588.76L1614.45 805.037H1628.07L1653.76 875.474H1641.38L1636.22 861.103ZM1632.92 851.691L1621.26 819.003L1609.5 851.691H1632.92Z" fill="url(#paint17_linear_113_172)"/>
<path d="M1688.36 805.138C1695.99 805.138 1702.66 806.588 1708.37 809.49C1714.15 812.323 1718.59 816.439 1721.68 821.836C1724.85 827.166 1726.43 833.407 1726.43 840.559C1726.43 847.711 1724.85 853.918 1721.68 859.181C1718.59 864.443 1714.15 868.491 1708.37 871.325C1702.66 874.091 1695.99 875.474 1688.36 875.474H1664.93V805.138H1688.36ZM1688.36 866.062C1696.75 866.062 1703.18 863.836 1707.65 859.383C1712.12 854.93 1714.36 848.655 1714.36 840.559C1714.36 832.395 1712.12 826.02 1707.65 821.432C1703.18 816.844 1696.75 814.55 1688.36 814.55H1676.7V866.062H1688.36Z" fill="url(#paint18_linear_113_172)"/>
<path d="M1749.75 805.138V849.971C1749.75 855.301 1751.16 859.315 1753.98 862.014C1756.87 864.713 1760.86 866.062 1765.95 866.062C1771.1 866.062 1775.09 864.713 1777.91 862.014C1780.8 859.315 1782.25 855.301 1782.25 849.971V805.138H1794.01V849.769C1794.01 855.503 1792.74 860.361 1790.19 864.342C1787.65 868.323 1784.24 871.291 1779.98 873.248C1775.71 875.204 1771 876.183 1765.84 876.183C1760.68 876.183 1755.97 875.204 1751.71 873.248C1747.51 871.291 1744.17 868.323 1741.7 864.342C1739.22 860.361 1737.98 855.503 1737.98 849.769V805.138H1749.75Z" fill="url(#paint19_linear_113_172)"/>
<path d="M1852.56 861.103H1822.53L1817.37 875.474H1805.1L1830.79 805.037H1844.41L1870.1 875.474H1857.72L1852.56 861.103ZM1849.26 851.691L1837.6 819.003L1825.83 851.691H1849.26Z" fill="url(#paint20_linear_113_172)"/>
<path d="M1893.03 866.164H1917.28V875.474H1881.27V805.138H1893.03V866.164Z" fill="url(#paint21_linear_113_172)"/>
</g>
<g filter="url(#filter1_d_113_172)">
<g filter="url(#filter2_d_113_172)">
<path d="M1605.69 308.3V413.16H1864.41V509.2H1605.69V613.079H1891.85V724.799H1501.81V203.441H1891.85V308.3H1605.69Z" fill="url(#paint22_linear_113_172)"/>
</g>
<g filter="url(#filter3_d_113_172)">
<path d="M1455.75 203.441V315.16H1284.26L1284.26 724.799H1134.32V315.16H962.817V203.441H1455.75Z" fill="url(#paint23_linear_113_172)"/>
</g>
<g filter="url(#filter4_d_113_172)">
<path d="M630.595 308.3V413.16H889.314V509.2H630.595V613.079H916.754V724.799H526.716V203.441H916.754V308.3H630.595Z" fill="url(#paint24_linear_113_172)"/>
</g>
</g>
<g filter="url(#filter5_d_113_172)">
<path d="M77.064 193.038H436.677V379.14H77.064V193.038Z" fill="url(#paint25_linear_113_172)"/>
<path d="M1983.29 193.038H2342.9V379.14H1983.29V193.038Z" fill="url(#paint26_linear_113_172)"/>
<path d="M77.064 417.285H436.677V603.387H77.064V417.285Z" fill="url(#paint27_linear_113_172)"/>
<path d="M1983.29 417.285H2342.9V603.387H1983.29V417.285Z" fill="url(#paint28_linear_113_172)"/>
<path d="M77.064 641.533H436.677V827.635H77.064V641.533Z" fill="url(#paint29_linear_113_172)"/>
<path d="M1983.29 641.532H2342.9V827.635H1983.29V641.532Z" fill="url(#paint30_linear_113_172)"/>
</g>
<rect x="0.774902" y="1159.38" width="2419.33" height="206.633" rx="103.316" fill="url(#paint31_linear_113_172)"/>
<mask id="path-13-outside-1_113_172" maskUnits="userSpaceOnUse" x="105.086" y="1182.78" width="2211" height="166" fill="black">
<rect fill="white" x="105.086" y="1182.78" width="2211" height="166"/>
<path d="M176.717 1284.36H133.301L125.841 1305.54H108.086L145.236 1201.7H164.93L202.08 1305.54H184.177L176.717 1284.36ZM171.943 1270.48L155.083 1222.29L138.075 1270.48H171.943Z"/>
<path d="M212.564 1264.06C212.564 1255.81 214.255 1248.5 217.636 1242.13C221.118 1235.77 225.793 1230.84 231.661 1227.36C237.629 1223.78 244.243 1221.99 251.504 1221.99C256.875 1221.99 262.147 1223.19 267.319 1225.57C272.591 1227.86 276.768 1230.94 279.852 1234.82V1195.14H297.009V1305.54H279.852V1293.16C277.067 1297.14 273.187 1300.42 268.214 1303.01C263.34 1305.59 257.721 1306.88 251.355 1306.88C244.194 1306.88 237.629 1305.09 231.661 1301.51C225.793 1297.83 221.118 1292.76 217.636 1286.3C214.255 1279.73 212.564 1272.32 212.564 1264.06ZM279.852 1264.36C279.852 1258.69 278.658 1253.77 276.271 1249.59C273.983 1245.42 270.949 1242.23 267.17 1240.04C263.39 1237.86 259.312 1236.76 254.936 1236.76C250.559 1236.76 246.481 1237.86 242.702 1240.04C238.922 1242.13 235.839 1245.27 233.451 1249.44C231.164 1253.52 230.02 1258.4 230.02 1264.06C230.02 1269.73 231.164 1274.71 233.451 1278.98C235.839 1283.26 238.922 1286.54 242.702 1288.83C246.581 1291.02 250.659 1292.11 254.936 1292.11C259.312 1292.11 263.39 1291.02 267.17 1288.83C270.949 1286.64 273.983 1283.46 276.271 1279.28C278.658 1275.01 279.852 1270.03 279.852 1264.36Z"/>
<path d="M351.128 1290.32L374.403 1223.33H392.456L361.124 1305.54H340.833L309.651 1223.33H327.853L351.128 1290.32Z"/>
<path d="M412.175 1306.59C409.092 1306.59 406.506 1305.54 404.417 1303.45C402.328 1301.36 401.284 1298.78 401.284 1295.69C401.284 1292.61 402.328 1290.03 404.417 1287.94C406.506 1285.85 409.092 1284.8 412.175 1284.8C415.159 1284.8 417.695 1285.85 419.784 1287.94C421.873 1290.03 422.917 1292.61 422.917 1295.69C422.917 1298.78 421.873 1301.36 419.784 1303.45C417.695 1305.54 415.159 1306.59 412.175 1306.59Z"/>
<path d="M536.602 1201.85V1276.6C536.602 1285.85 533.767 1293.16 528.098 1298.53C522.528 1303.9 515.167 1306.59 506.016 1306.59C496.866 1306.59 489.456 1303.9 483.786 1298.53C478.216 1293.16 475.431 1285.85 475.431 1276.6H492.589C492.688 1281.17 493.832 1284.8 496.02 1287.49C498.308 1290.17 501.64 1291.52 506.016 1291.52C510.393 1291.52 513.725 1290.17 516.013 1287.49C518.3 1284.7 519.444 1281.07 519.444 1276.6V1201.85H536.602Z"/>
<path d="M599.929 1306.88C592.171 1306.88 585.158 1305.14 578.892 1301.66C572.626 1298.08 567.702 1293.11 564.122 1286.74C560.541 1280.28 558.751 1272.82 558.751 1264.36C558.751 1256.01 560.591 1248.6 564.271 1242.13C567.951 1235.67 572.974 1230.69 579.34 1227.21C585.705 1223.73 592.817 1221.99 600.675 1221.99C608.533 1221.99 615.644 1223.73 622.01 1227.21C628.376 1230.69 633.399 1235.67 637.079 1242.13C640.759 1248.6 642.599 1256.01 642.599 1264.36C642.599 1272.72 640.709 1280.13 636.93 1286.59C633.15 1293.06 627.978 1298.08 621.413 1301.66C614.948 1305.14 607.787 1306.88 599.929 1306.88ZM599.929 1292.11C604.305 1292.11 608.383 1291.07 612.163 1288.98C616.042 1286.89 619.175 1283.76 621.562 1279.58C623.95 1275.4 625.143 1270.33 625.143 1264.36C625.143 1258.4 623.999 1253.37 621.712 1249.29C619.424 1245.12 616.39 1241.98 612.611 1239.9C608.831 1237.81 604.753 1236.76 600.376 1236.76C596 1236.76 591.922 1237.81 588.142 1239.9C584.462 1241.98 581.528 1245.12 579.34 1249.29C577.151 1253.37 576.057 1258.4 576.057 1264.36C576.057 1273.22 578.295 1280.08 582.771 1284.95C587.347 1289.73 593.066 1292.11 599.929 1292.11Z"/>
<path d="M689.252 1306.88C682.787 1306.88 676.968 1305.74 671.796 1303.45C666.724 1301.07 662.695 1297.88 659.711 1293.9C656.727 1289.83 655.136 1285.3 654.937 1280.33H672.542C672.841 1283.81 674.482 1286.74 677.466 1289.13C680.549 1291.42 684.378 1292.56 688.954 1292.56C693.728 1292.56 697.408 1291.67 699.994 1289.88C702.68 1287.99 704.023 1285.6 704.023 1282.71C704.023 1279.63 702.531 1277.34 699.547 1275.85C696.662 1274.36 692.037 1272.72 685.672 1270.93C679.505 1269.24 674.482 1267.6 670.603 1266C666.724 1264.41 663.342 1261.98 660.457 1258.69C657.672 1255.41 656.28 1251.08 656.28 1245.71C656.28 1241.34 657.573 1237.36 660.159 1233.78C662.745 1230.1 666.425 1227.21 671.199 1225.12C676.073 1223.04 681.643 1221.99 687.909 1221.99C697.259 1221.99 704.769 1224.38 710.438 1229.15C716.207 1233.83 719.291 1240.24 719.688 1248.4H702.68C702.382 1244.72 700.89 1241.78 698.204 1239.6C695.518 1237.41 691.888 1236.31 687.313 1236.31C682.837 1236.31 679.405 1237.16 677.018 1238.85C674.631 1240.54 673.437 1242.78 673.437 1245.56C673.437 1247.75 674.233 1249.59 675.825 1251.08C677.416 1252.58 679.356 1253.77 681.643 1254.67C683.931 1255.46 687.313 1256.51 691.789 1257.8C697.756 1259.39 702.63 1261.03 706.41 1262.72C710.289 1264.31 713.621 1266.7 716.406 1269.88C719.191 1273.07 720.633 1277.29 720.733 1282.57C720.733 1287.24 719.44 1291.42 716.854 1295.1C714.268 1298.78 710.587 1301.66 705.813 1303.75C701.138 1305.84 695.618 1306.88 689.252 1306.88Z"/>
<path d="M814.455 1262.42C814.455 1265.51 814.256 1268.29 813.858 1270.78H751.047C751.544 1277.34 753.981 1282.62 758.357 1286.59C762.734 1290.57 768.105 1292.56 774.47 1292.56C783.621 1292.56 790.086 1288.73 793.866 1281.07H812.217C809.731 1288.63 805.205 1294.85 798.64 1299.72C792.175 1304.5 784.118 1306.88 774.47 1306.88C766.613 1306.88 759.551 1305.14 753.284 1301.66C747.118 1298.08 742.244 1293.11 738.663 1286.74C735.182 1280.28 733.441 1272.82 733.441 1264.36C733.441 1255.91 735.132 1248.5 738.514 1242.13C741.995 1235.67 746.819 1230.69 752.986 1227.21C759.252 1223.73 766.414 1221.99 774.47 1221.99C782.229 1221.99 789.141 1223.68 795.209 1227.06C801.276 1230.45 806.001 1235.22 809.382 1241.39C812.764 1247.45 814.455 1254.47 814.455 1262.42ZM796.701 1257.05C796.601 1250.79 794.363 1245.76 789.987 1241.98C785.61 1238.2 780.19 1236.31 773.724 1236.31C767.856 1236.31 762.833 1238.2 758.656 1241.98C754.478 1245.66 751.991 1250.69 751.196 1257.05H796.701ZM789.39 1201.25L756.418 1217.52V1204.98L789.39 1186.78V1201.25Z"/>
<path d="M903.817 1201.85C914.858 1201.85 924.506 1203.99 932.761 1208.27C941.116 1212.44 947.532 1218.51 952.008 1226.47C956.583 1234.33 958.871 1243.53 958.871 1254.07C958.871 1264.61 956.583 1273.76 952.008 1281.52C947.532 1289.28 941.116 1295.25 932.761 1299.42C924.506 1303.5 914.858 1305.54 903.817 1305.54H869.949V1201.85H903.817ZM903.817 1291.67C915.952 1291.67 925.252 1288.38 931.717 1281.82C938.182 1275.25 941.415 1266 941.415 1254.07C941.415 1242.03 938.182 1232.63 931.717 1225.87C925.252 1219.11 915.952 1215.73 903.817 1215.73H886.958V1291.67H903.817Z"/>
<path d="M970.058 1264.06C970.058 1255.81 971.749 1248.5 975.131 1242.13C978.612 1235.77 983.287 1230.84 989.155 1227.36C995.123 1223.78 1001.69 1221.99 1008.85 1221.99C1015.31 1221.99 1020.93 1223.28 1025.71 1225.87C1030.58 1228.36 1034.46 1231.49 1037.35 1235.27V1223.33H1054.5V1305.54H1037.35V1293.31C1034.46 1297.19 1030.53 1300.42 1025.56 1303.01C1020.59 1305.59 1014.92 1306.88 1008.55 1306.88C1001.49 1306.88 995.024 1305.09 989.155 1301.51C983.287 1297.83 978.612 1292.76 975.131 1286.3C971.749 1279.73 970.058 1272.32 970.058 1264.06ZM1037.35 1264.36C1037.35 1258.69 1036.15 1253.77 1033.77 1249.59C1031.48 1245.42 1028.44 1242.23 1024.66 1240.04C1020.88 1237.86 1016.81 1236.76 1012.43 1236.76C1008.05 1236.76 1003.98 1237.86 1000.2 1240.04C996.416 1242.13 993.333 1245.27 990.946 1249.44C988.658 1253.52 987.514 1258.4 987.514 1264.06C987.514 1269.73 988.658 1274.71 990.946 1278.98C993.333 1283.26 996.416 1286.54 1000.2 1288.83C1004.07 1291.02 1008.15 1292.11 1012.43 1292.11C1016.81 1292.11 1020.88 1291.02 1024.66 1288.83C1028.44 1286.64 1031.48 1283.46 1033.77 1279.28C1036.15 1275.01 1037.35 1270.03 1037.35 1264.36Z"/>
<path d="M1108.62 1290.32L1131.9 1223.33H1149.95L1118.62 1305.54H1098.33L1067.15 1223.33H1085.35L1108.62 1290.32Z"/>
<path d="M1171.46 1212.44C1168.38 1212.44 1165.79 1211.4 1163.7 1209.31C1161.61 1207.22 1160.57 1204.63 1160.57 1201.55C1160.57 1198.47 1161.61 1195.88 1163.7 1193.79C1165.79 1191.7 1168.38 1190.66 1171.46 1190.66C1174.44 1190.66 1176.98 1191.7 1179.07 1193.79C1181.16 1195.88 1182.2 1198.47 1182.2 1201.55C1182.2 1204.63 1181.16 1207.22 1179.07 1209.31C1176.98 1211.4 1174.44 1212.44 1171.46 1212.44ZM1179.81 1223.33V1305.54H1162.81V1223.33H1179.81Z"/>
<path d="M1196.48 1264.06C1196.48 1255.81 1198.17 1248.5 1201.55 1242.13C1205.03 1235.77 1209.7 1230.84 1215.57 1227.36C1221.54 1223.78 1228.16 1221.99 1235.42 1221.99C1240.79 1221.99 1246.06 1223.19 1251.23 1225.57C1256.5 1227.86 1260.68 1230.94 1263.76 1234.82V1195.14H1280.92V1305.54H1263.76V1293.16C1260.98 1297.14 1257.1 1300.42 1252.13 1303.01C1247.25 1305.59 1241.63 1306.88 1235.27 1306.88C1228.11 1306.88 1221.54 1305.09 1215.57 1301.51C1209.7 1297.83 1205.03 1292.76 1201.55 1286.3C1198.17 1279.73 1196.48 1272.32 1196.48 1264.06ZM1263.76 1264.36C1263.76 1258.69 1262.57 1253.77 1260.18 1249.59C1257.9 1245.42 1254.86 1242.23 1251.08 1240.04C1247.3 1237.86 1243.22 1236.76 1238.85 1236.76C1234.47 1236.76 1230.39 1237.86 1226.61 1240.04C1222.83 1242.13 1219.75 1245.27 1217.36 1249.44C1215.08 1253.52 1213.93 1258.4 1213.93 1264.06C1213.93 1269.73 1215.08 1274.71 1217.36 1278.98C1219.75 1283.26 1222.83 1286.54 1226.61 1288.83C1230.49 1291.02 1234.57 1292.11 1238.85 1292.11C1243.22 1292.11 1247.3 1291.02 1251.08 1288.83C1254.86 1286.64 1257.9 1283.46 1260.18 1279.28C1262.57 1275.01 1263.76 1270.03 1263.76 1264.36Z"/>
<path d="M1417.06 1231.69C1414.38 1226.52 1410.65 1222.64 1405.87 1220.05C1401.1 1217.37 1395.58 1216.02 1389.31 1216.02C1382.45 1216.02 1376.33 1217.57 1370.96 1220.65C1365.59 1223.73 1361.36 1228.11 1358.28 1233.78C1355.3 1239.45 1353.8 1246.01 1353.8 1253.47C1353.8 1260.93 1355.3 1267.55 1358.28 1273.32C1361.36 1278.98 1365.59 1283.36 1370.96 1286.44C1376.33 1289.53 1382.45 1291.07 1389.31 1291.07C1398.56 1291.07 1406.07 1288.48 1411.84 1283.31C1417.61 1278.14 1421.14 1271.13 1422.43 1262.27H1383.49V1248.7H1440.64V1261.98C1439.54 1270.03 1436.66 1277.44 1431.98 1284.21C1427.41 1290.97 1421.39 1296.39 1413.93 1300.47C1406.57 1304.45 1398.36 1306.44 1389.31 1306.44C1379.57 1306.44 1370.66 1304.2 1362.61 1299.72C1354.55 1295.15 1348.13 1288.83 1343.36 1280.77C1338.69 1272.72 1336.35 1263.62 1336.35 1253.47C1336.35 1243.33 1338.69 1234.23 1343.36 1226.17C1348.13 1218.11 1354.55 1211.85 1362.61 1207.37C1370.76 1202.79 1379.66 1200.51 1389.31 1200.51C1400.35 1200.51 1410.15 1203.24 1418.7 1208.71C1427.36 1214.08 1433.62 1221.74 1437.5 1231.69H1417.06Z"/>
<path d="M1466.07 1212.44C1462.98 1212.44 1460.4 1211.4 1458.31 1209.31C1456.22 1207.22 1455.17 1204.63 1455.17 1201.55C1455.17 1198.47 1456.22 1195.88 1458.31 1193.79C1460.4 1191.7 1462.98 1190.66 1466.07 1190.66C1469.05 1190.66 1471.59 1191.7 1473.67 1193.79C1475.76 1195.88 1476.81 1198.47 1476.81 1201.55C1476.81 1204.63 1475.76 1207.22 1473.67 1209.31C1471.59 1211.4 1469.05 1212.44 1466.07 1212.44ZM1474.42 1223.33V1305.54H1457.41V1223.33H1474.42Z"/>
<path d="M1513.76 1195.14V1305.54H1496.75V1195.14H1513.76Z"/>
<path d="M1628.71 1305.54L1604.83 1264.06H1591.85V1305.54H1574.85V1201.85H1610.65C1618.61 1201.85 1625.32 1203.24 1630.79 1206.03C1636.36 1208.81 1640.49 1212.54 1643.18 1217.22C1645.96 1221.89 1647.36 1227.11 1647.36 1232.88C1647.36 1239.65 1645.37 1245.81 1641.39 1251.38C1637.51 1256.85 1631.49 1260.58 1623.33 1262.57L1649 1305.54H1628.71ZM1591.85 1250.49H1610.65C1617.02 1250.49 1621.79 1248.9 1624.98 1245.71C1628.26 1242.53 1629.9 1238.25 1629.9 1232.88C1629.9 1227.51 1628.31 1223.33 1625.13 1220.35C1621.94 1217.27 1617.12 1215.73 1610.65 1215.73H1591.85V1250.49Z"/>
<path d="M1704.77 1306.88C1697.01 1306.88 1690 1305.14 1683.74 1301.66C1677.47 1298.08 1672.55 1293.11 1668.96 1286.74C1665.38 1280.28 1663.59 1272.82 1663.59 1264.36C1663.59 1256.01 1665.43 1248.6 1669.11 1242.13C1672.79 1235.67 1677.82 1230.69 1684.18 1227.21C1690.55 1223.73 1697.66 1221.99 1705.52 1221.99C1713.38 1221.99 1720.49 1223.73 1726.85 1227.21C1733.22 1230.69 1738.24 1235.67 1741.92 1242.13C1745.6 1248.6 1747.44 1256.01 1747.44 1264.36C1747.44 1272.72 1745.55 1280.13 1741.77 1286.59C1737.99 1293.06 1732.82 1298.08 1726.26 1301.66C1719.79 1305.14 1712.63 1306.88 1704.77 1306.88ZM1704.77 1292.11C1709.15 1292.11 1713.23 1291.07 1717.01 1288.98C1720.89 1286.89 1724.02 1283.76 1726.41 1279.58C1728.79 1275.4 1729.99 1270.33 1729.99 1264.36C1729.99 1258.4 1728.84 1253.37 1726.55 1249.29C1724.27 1245.12 1721.23 1241.98 1717.45 1239.9C1713.67 1237.81 1709.6 1236.76 1705.22 1236.76C1700.84 1236.76 1696.77 1237.81 1692.99 1239.9C1689.31 1241.98 1686.37 1245.12 1684.18 1249.29C1681.99 1253.37 1680.9 1258.4 1680.9 1264.36C1680.9 1273.22 1683.14 1280.08 1687.61 1284.95C1692.19 1289.73 1697.91 1292.11 1704.77 1292.11Z"/>
<path d="M1758.59 1264.06C1758.59 1255.81 1760.28 1248.5 1763.66 1242.13C1767.14 1235.77 1771.82 1230.84 1777.68 1227.36C1783.65 1223.78 1790.27 1221.99 1797.53 1221.99C1802.9 1221.99 1808.17 1223.19 1813.34 1225.57C1818.61 1227.86 1822.79 1230.94 1825.87 1234.82V1195.14H1843.03V1305.54H1825.87V1293.16C1823.09 1297.14 1819.21 1300.42 1814.24 1303.01C1809.36 1305.59 1803.74 1306.88 1797.38 1306.88C1790.22 1306.88 1783.65 1305.09 1777.68 1301.51C1771.82 1297.83 1767.14 1292.76 1763.66 1286.3C1760.28 1279.73 1758.59 1272.32 1758.59 1264.06ZM1825.87 1264.36C1825.87 1258.69 1824.68 1253.77 1822.29 1249.59C1820.01 1245.42 1816.97 1242.23 1813.19 1240.04C1809.41 1237.86 1805.33 1236.76 1800.96 1236.76C1796.58 1236.76 1792.5 1237.86 1788.72 1240.04C1784.94 1242.13 1781.86 1245.27 1779.47 1249.44C1777.19 1253.52 1776.04 1258.4 1776.04 1264.06C1776.04 1269.73 1777.19 1274.71 1779.47 1278.98C1781.86 1283.26 1784.94 1286.54 1788.72 1288.83C1792.6 1291.02 1796.68 1292.11 1800.96 1292.11C1805.33 1292.11 1809.41 1291.02 1813.19 1288.83C1816.97 1286.64 1820.01 1283.46 1822.29 1279.28C1824.68 1275.01 1825.87 1270.03 1825.87 1264.36Z"/>
<path d="M1882.38 1235.27C1884.87 1231.09 1888.15 1227.86 1892.23 1225.57C1896.4 1223.19 1901.33 1221.99 1907 1221.99V1239.6H1902.67C1896.01 1239.6 1890.93 1241.29 1887.45 1244.67C1884.07 1248.05 1882.38 1253.92 1882.38 1262.27V1305.54H1865.37V1223.33H1882.38V1235.27Z"/>
<path d="M1931.29 1212.44C1928.2 1212.44 1925.62 1211.4 1923.53 1209.31C1921.44 1207.22 1920.39 1204.63 1920.39 1201.55C1920.39 1198.47 1921.44 1195.88 1923.53 1193.79C1925.62 1191.7 1928.2 1190.66 1931.29 1190.66C1934.27 1190.66 1936.81 1191.7 1938.89 1193.79C1940.98 1195.88 1942.03 1198.47 1942.03 1201.55C1942.03 1204.63 1940.98 1207.22 1938.89 1209.31C1936.81 1211.4 1934.27 1212.44 1931.29 1212.44ZM1939.64 1223.33V1305.54H1922.63V1223.33H1939.64Z"/>
<path d="M1995.09 1221.99C2001.46 1221.99 2007.08 1223.28 2011.95 1225.87C2016.92 1228.36 2020.8 1231.49 2023.59 1235.27V1223.33H2040.75V1306.88C2040.75 1314.44 2039.16 1321.16 2035.97 1327.03C2032.79 1332.99 2028.16 1337.67 2022.1 1341.05C2016.13 1344.43 2008.97 1346.12 2000.61 1346.12C1989.47 1346.12 1980.22 1343.49 1972.86 1338.22C1965.5 1333.04 1961.32 1325.98 1960.33 1317.03H1977.19C1978.48 1321.31 1981.22 1324.74 1985.39 1327.32C1989.67 1330.01 1994.74 1331.35 2000.61 1331.35C2007.48 1331.35 2013 1329.26 2017.17 1325.09C2021.45 1320.91 2023.59 1314.84 2023.59 1306.88V1293.16C2020.7 1297.04 2016.78 1300.32 2011.8 1303.01C2006.93 1305.59 2001.36 1306.88 1995.09 1306.88C1987.93 1306.88 1981.37 1305.09 1975.4 1301.51C1969.53 1297.83 1964.86 1292.76 1961.37 1286.3C1957.99 1279.73 1956.3 1272.32 1956.3 1264.06C1956.3 1255.81 1957.99 1248.5 1961.37 1242.13C1964.86 1235.77 1969.53 1230.84 1975.4 1227.36C1981.37 1223.78 1987.93 1221.99 1995.09 1221.99ZM2023.59 1264.36C2023.59 1258.69 2022.4 1253.77 2020.01 1249.59C2017.72 1245.42 2014.69 1242.23 2010.91 1240.04C2007.13 1237.86 2003.05 1236.76 1998.67 1236.76C1994.3 1236.76 1990.22 1237.86 1986.44 1240.04C1982.66 1242.13 1979.58 1245.27 1977.19 1249.44C1974.9 1253.52 1973.76 1258.4 1973.76 1264.06C1973.76 1269.73 1974.9 1274.71 1977.19 1278.98C1979.58 1283.26 1982.66 1286.54 1986.44 1288.83C1990.32 1291.02 1994.4 1292.11 1998.67 1292.11C2003.05 1292.11 2007.13 1291.02 2010.91 1288.83C2014.69 1286.64 2017.72 1283.46 2020.01 1279.28C2022.4 1275.01 2023.59 1270.03 2023.59 1264.36Z"/>
<path d="M2137.54 1223.33V1305.54H2120.53V1295.84C2117.84 1299.23 2114.31 1301.91 2109.93 1303.9C2105.66 1305.79 2101.08 1306.74 2096.21 1306.74C2089.74 1306.74 2083.92 1305.39 2078.75 1302.71C2073.68 1300.02 2069.65 1296.04 2066.67 1290.77C2063.78 1285.5 2062.34 1279.13 2062.34 1271.67V1223.33H2079.2V1269.14C2079.2 1276.5 2081.04 1282.17 2084.72 1286.15C2088.4 1290.03 2093.42 1291.96 2099.79 1291.96C2106.15 1291.96 2111.18 1290.03 2114.86 1286.15C2118.64 1282.17 2120.53 1276.5 2120.53 1269.14V1223.33H2137.54Z"/>
<path d="M2235.32 1262.42C2235.32 1265.51 2235.12 1268.29 2234.72 1270.78H2171.91C2172.41 1277.34 2174.85 1282.62 2179.22 1286.59C2183.6 1290.57 2188.97 1292.56 2195.34 1292.56C2204.49 1292.56 2210.95 1288.73 2214.73 1281.07H2233.08C2230.6 1288.63 2226.07 1294.85 2219.51 1299.72C2213.04 1304.5 2204.98 1306.88 2195.34 1306.88C2187.48 1306.88 2180.42 1305.14 2174.15 1301.66C2167.98 1298.08 2163.11 1293.11 2159.53 1286.74C2156.05 1280.28 2154.31 1272.82 2154.31 1264.36C2154.31 1255.91 2156 1248.5 2159.38 1242.13C2162.86 1235.67 2167.69 1230.69 2173.85 1227.21C2180.12 1223.73 2187.28 1221.99 2195.34 1221.99C2203.09 1221.99 2210.01 1223.68 2216.08 1227.06C2222.14 1230.45 2226.87 1235.22 2230.25 1241.39C2233.63 1247.45 2235.32 1254.47 2235.32 1262.42ZM2217.57 1257.05C2217.47 1250.79 2215.23 1245.76 2210.85 1241.98C2206.48 1238.2 2201.06 1236.31 2194.59 1236.31C2188.72 1236.31 2183.7 1238.2 2179.52 1241.98C2175.34 1245.66 2172.86 1250.69 2172.06 1257.05H2217.57Z"/>
<path d="M2281.9 1306.88C2275.43 1306.88 2269.61 1305.74 2264.44 1303.45C2259.37 1301.07 2255.34 1297.88 2252.36 1293.9C2249.37 1289.83 2247.78 1285.3 2247.58 1280.33H2265.19C2265.49 1283.81 2267.13 1286.74 2270.11 1289.13C2273.2 1291.42 2277.03 1292.56 2281.6 1292.56C2286.38 1292.56 2290.06 1291.67 2292.64 1289.88C2295.33 1287.99 2296.67 1285.6 2296.67 1282.71C2296.67 1279.63 2295.18 1277.34 2292.19 1275.85C2289.31 1274.36 2284.68 1272.72 2278.32 1270.93C2272.15 1269.24 2267.13 1267.6 2263.25 1266C2259.37 1264.41 2255.99 1261.98 2253.1 1258.69C2250.32 1255.41 2248.93 1251.08 2248.93 1245.71C2248.93 1241.34 2250.22 1237.36 2252.81 1233.78C2255.39 1230.1 2259.07 1227.21 2263.85 1225.12C2268.72 1223.04 2274.29 1221.99 2280.56 1221.99C2289.91 1221.99 2297.42 1224.38 2303.08 1229.15C2308.85 1233.83 2311.94 1240.24 2312.34 1248.4H2295.33C2295.03 1244.72 2293.54 1241.78 2290.85 1239.6C2288.17 1237.41 2284.53 1236.31 2279.96 1236.31C2275.48 1236.31 2272.05 1237.16 2269.66 1238.85C2267.28 1240.54 2266.08 1242.78 2266.08 1245.56C2266.08 1247.75 2266.88 1249.59 2268.47 1251.08C2270.06 1252.58 2272 1253.77 2274.29 1254.67C2276.58 1255.46 2279.96 1256.51 2284.44 1257.8C2290.4 1259.39 2295.28 1261.03 2299.06 1262.72C2302.94 1264.31 2306.27 1266.7 2309.05 1269.88C2311.84 1273.07 2313.28 1277.29 2313.38 1282.57C2313.38 1287.24 2312.09 1291.42 2309.5 1295.1C2306.91 1298.78 2303.23 1301.66 2298.46 1303.75C2293.78 1305.84 2288.26 1306.88 2281.9 1306.88Z"/>
</mask>
<path d="M176.717 1284.36H133.301L125.841 1305.54H108.086L145.236 1201.7H164.93L202.08 1305.54H184.177L176.717 1284.36ZM171.943 1270.48L155.083 1222.29L138.075 1270.48H171.943Z" fill="#091748"/>
<path d="M212.564 1264.06C212.564 1255.81 214.255 1248.5 217.636 1242.13C221.118 1235.77 225.793 1230.84 231.661 1227.36C237.629 1223.78 244.243 1221.99 251.504 1221.99C256.875 1221.99 262.147 1223.19 267.319 1225.57C272.591 1227.86 276.768 1230.94 279.852 1234.82V1195.14H297.009V1305.54H279.852V1293.16C277.067 1297.14 273.187 1300.42 268.214 1303.01C263.34 1305.59 257.721 1306.88 251.355 1306.88C244.194 1306.88 237.629 1305.09 231.661 1301.51C225.793 1297.83 221.118 1292.76 217.636 1286.3C214.255 1279.73 212.564 1272.32 212.564 1264.06ZM279.852 1264.36C279.852 1258.69 278.658 1253.77 276.271 1249.59C273.983 1245.42 270.949 1242.23 267.17 1240.04C263.39 1237.86 259.312 1236.76 254.936 1236.76C250.559 1236.76 246.481 1237.86 242.702 1240.04C238.922 1242.13 235.839 1245.27 233.451 1249.44C231.164 1253.52 230.02 1258.4 230.02 1264.06C230.02 1269.73 231.164 1274.71 233.451 1278.98C235.839 1283.26 238.922 1286.54 242.702 1288.83C246.581 1291.02 250.659 1292.11 254.936 1292.11C259.312 1292.11 263.39 1291.02 267.17 1288.83C270.949 1286.64 273.983 1283.46 276.271 1279.28C278.658 1275.01 279.852 1270.03 279.852 1264.36Z" fill="#091748"/>
<path d="M351.128 1290.32L374.403 1223.33H392.456L361.124 1305.54H340.833L309.651 1223.33H327.853L351.128 1290.32Z" fill="#091748"/>
<path d="M412.175 1306.59C409.092 1306.59 406.506 1305.54 404.417 1303.45C402.328 1301.36 401.284 1298.78 401.284 1295.69C401.284 1292.61 402.328 1290.03 404.417 1287.94C406.506 1285.85 409.092 1284.8 412.175 1284.8C415.159 1284.8 417.695 1285.85 419.784 1287.94C421.873 1290.03 422.917 1292.61 422.917 1295.69C422.917 1298.78 421.873 1301.36 419.784 1303.45C417.695 1305.54 415.159 1306.59 412.175 1306.59Z" fill="#091748"/>
<path d="M536.602 1201.85V1276.6C536.602 1285.85 533.767 1293.16 528.098 1298.53C522.528 1303.9 515.167 1306.59 506.016 1306.59C496.866 1306.59 489.456 1303.9 483.786 1298.53C478.216 1293.16 475.431 1285.85 475.431 1276.6H492.589C492.688 1281.17 493.832 1284.8 496.02 1287.49C498.308 1290.17 501.64 1291.52 506.016 1291.52C510.393 1291.52 513.725 1290.17 516.013 1287.49C518.3 1284.7 519.444 1281.07 519.444 1276.6V1201.85H536.602Z" fill="#091748"/>
<path d="M599.929 1306.88C592.171 1306.88 585.158 1305.14 578.892 1301.66C572.626 1298.08 567.702 1293.11 564.122 1286.74C560.541 1280.28 558.751 1272.82 558.751 1264.36C558.751 1256.01 560.591 1248.6 564.271 1242.13C567.951 1235.67 572.974 1230.69 579.34 1227.21C585.705 1223.73 592.817 1221.99 600.675 1221.99C608.533 1221.99 615.644 1223.73 622.01 1227.21C628.376 1230.69 633.399 1235.67 637.079 1242.13C640.759 1248.6 642.599 1256.01 642.599 1264.36C642.599 1272.72 640.709 1280.13 636.93 1286.59C633.15 1293.06 627.978 1298.08 621.413 1301.66C614.948 1305.14 607.787 1306.88 599.929 1306.88ZM599.929 1292.11C604.305 1292.11 608.383 1291.07 612.163 1288.98C616.042 1286.89 619.175 1283.76 621.562 1279.58C623.95 1275.4 625.143 1270.33 625.143 1264.36C625.143 1258.4 623.999 1253.37 621.712 1249.29C619.424 1245.12 616.39 1241.98 612.611 1239.9C608.831 1237.81 604.753 1236.76 600.376 1236.76C596 1236.76 591.922 1237.81 588.142 1239.9C584.462 1241.98 581.528 1245.12 579.34 1249.29C577.151 1253.37 576.057 1258.4 576.057 1264.36C576.057 1273.22 578.295 1280.08 582.771 1284.95C587.347 1289.73 593.066 1292.11 599.929 1292.11Z" fill="#091748"/>
<path d="M689.252 1306.88C682.787 1306.88 676.968 1305.74 671.796 1303.45C666.724 1301.07 662.695 1297.88 659.711 1293.9C656.727 1289.83 655.136 1285.3 654.937 1280.33H672.542C672.841 1283.81 674.482 1286.74 677.466 1289.13C680.549 1291.42 684.378 1292.56 688.954 1292.56C693.728 1292.56 697.408 1291.67 699.994 1289.88C702.68 1287.99 704.023 1285.6 704.023 1282.71C704.023 1279.63 702.531 1277.34 699.547 1275.85C696.662 1274.36 692.037 1272.72 685.672 1270.93C679.505 1269.24 674.482 1267.6 670.603 1266C666.724 1264.41 663.342 1261.98 660.457 1258.69C657.672 1255.41 656.28 1251.08 656.28 1245.71C656.28 1241.34 657.573 1237.36 660.159 1233.78C662.745 1230.1 666.425 1227.21 671.199 1225.12C676.073 1223.04 681.643 1221.99 687.909 1221.99C697.259 1221.99 704.769 1224.38 710.438 1229.15C716.207 1233.83 719.291 1240.24 719.688 1248.4H702.68C702.382 1244.72 700.89 1241.78 698.204 1239.6C695.518 1237.41 691.888 1236.31 687.313 1236.31C682.837 1236.31 679.405 1237.16 677.018 1238.85C674.631 1240.54 673.437 1242.78 673.437 1245.56C673.437 1247.75 674.233 1249.59 675.825 1251.08C677.416 1252.58 679.356 1253.77 681.643 1254.67C683.931 1255.46 687.313 1256.51 691.789 1257.8C697.756 1259.39 702.63 1261.03 706.41 1262.72C710.289 1264.31 713.621 1266.7 716.406 1269.88C719.191 1273.07 720.633 1277.29 720.733 1282.57C720.733 1287.24 719.44 1291.42 716.854 1295.1C714.268 1298.78 710.587 1301.66 705.813 1303.75C701.138 1305.84 695.618 1306.88 689.252 1306.88Z" fill="#091748"/>
<path d="M814.455 1262.42C814.455 1265.51 814.256 1268.29 813.858 1270.78H751.047C751.544 1277.34 753.981 1282.62 758.357 1286.59C762.734 1290.57 768.105 1292.56 774.47 1292.56C783.621 1292.56 790.086 1288.73 793.866 1281.07H812.217C809.731 1288.63 805.205 1294.85 798.64 1299.72C792.175 1304.5 784.118 1306.88 774.47 1306.88C766.613 1306.88 759.551 1305.14 753.284 1301.66C747.118 1298.08 742.244 1293.11 738.663 1286.74C735.182 1280.28 733.441 1272.82 733.441 1264.36C733.441 1255.91 735.132 1248.5 738.514 1242.13C741.995 1235.67 746.819 1230.69 752.986 1227.21C759.252 1223.73 766.414 1221.99 774.47 1221.99C782.229 1221.99 789.141 1223.68 795.209 1227.06C801.276 1230.45 806.001 1235.22 809.382 1241.39C812.764 1247.45 814.455 1254.47 814.455 1262.42ZM796.701 1257.05C796.601 1250.79 794.363 1245.76 789.987 1241.98C785.61 1238.2 780.19 1236.31 773.724 1236.31C767.856 1236.31 762.833 1238.2 758.656 1241.98C754.478 1245.66 751.991 1250.69 751.196 1257.05H796.701ZM789.39 1201.25L756.418 1217.52V1204.98L789.39 1186.78V1201.25Z" fill="#091748"/>
<path d="M903.817 1201.85C914.858 1201.85 924.506 1203.99 932.761 1208.27C941.116 1212.44 947.532 1218.51 952.008 1226.47C956.583 1234.33 958.871 1243.53 958.871 1254.07C958.871 1264.61 956.583 1273.76 952.008 1281.52C947.532 1289.28 941.116 1295.25 932.761 1299.42C924.506 1303.5 914.858 1305.54 903.817 1305.54H869.949V1201.85H903.817ZM903.817 1291.67C915.952 1291.67 925.252 1288.38 931.717 1281.82C938.182 1275.25 941.415 1266 941.415 1254.07C941.415 1242.03 938.182 1232.63 931.717 1225.87C925.252 1219.11 915.952 1215.73 903.817 1215.73H886.958V1291.67H903.817Z" fill="#091748"/>
<path d="M970.058 1264.06C970.058 1255.81 971.749 1248.5 975.131 1242.13C978.612 1235.77 983.287 1230.84 989.155 1227.36C995.123 1223.78 1001.69 1221.99 1008.85 1221.99C1015.31 1221.99 1020.93 1223.28 1025.71 1225.87C1030.58 1228.36 1034.46 1231.49 1037.35 1235.27V1223.33H1054.5V1305.54H1037.35V1293.31C1034.46 1297.19 1030.53 1300.42 1025.56 1303.01C1020.59 1305.59 1014.92 1306.88 1008.55 1306.88C1001.49 1306.88 995.024 1305.09 989.155 1301.51C983.287 1297.83 978.612 1292.76 975.131 1286.3C971.749 1279.73 970.058 1272.32 970.058 1264.06ZM1037.35 1264.36C1037.35 1258.69 1036.15 1253.77 1033.77 1249.59C1031.48 1245.42 1028.44 1242.23 1024.66 1240.04C1020.88 1237.86 1016.81 1236.76 1012.43 1236.76C1008.05 1236.76 1003.98 1237.86 1000.2 1240.04C996.416 1242.13 993.333 1245.27 990.946 1249.44C988.658 1253.52 987.514 1258.4 987.514 1264.06C987.514 1269.73 988.658 1274.71 990.946 1278.98C993.333 1283.26 996.416 1286.54 1000.2 1288.83C1004.07 1291.02 1008.15 1292.11 1012.43 1292.11C1016.81 1292.11 1020.88 1291.02 1024.66 1288.83C1028.44 1286.64 1031.48 1283.46 1033.77 1279.28C1036.15 1275.01 1037.35 1270.03 1037.35 1264.36Z" fill="#091748"/>
<path d="M1108.62 1290.32L1131.9 1223.33H1149.95L1118.62 1305.54H1098.33L1067.15 1223.33H1085.35L1108.62 1290.32Z" fill="#091748"/>
<path d="M1171.46 1212.44C1168.38 1212.44 1165.79 1211.4 1163.7 1209.31C1161.61 1207.22 1160.57 1204.63 1160.57 1201.55C1160.57 1198.47 1161.61 1195.88 1163.7 1193.79C1165.79 1191.7 1168.38 1190.66 1171.46 1190.66C1174.44 1190.66 1176.98 1191.7 1179.07 1193.79C1181.16 1195.88 1182.2 1198.47 1182.2 1201.55C1182.2 1204.63 1181.16 1207.22 1179.07 1209.31C1176.98 1211.4 1174.44 1212.44 1171.46 1212.44ZM1179.81 1223.33V1305.54H1162.81V1223.33H1179.81Z" fill="#091748"/>
<path d="M1196.48 1264.06C1196.48 1255.81 1198.17 1248.5 1201.55 1242.13C1205.03 1235.77 1209.7 1230.84 1215.57 1227.36C1221.54 1223.78 1228.16 1221.99 1235.42 1221.99C1240.79 1221.99 1246.06 1223.19 1251.23 1225.57C1256.5 1227.86 1260.68 1230.94 1263.76 1234.82V1195.14H1280.92V1305.54H1263.76V1293.16C1260.98 1297.14 1257.1 1300.42 1252.13 1303.01C1247.25 1305.59 1241.63 1306.88 1235.27 1306.88C1228.11 1306.88 1221.54 1305.09 1215.57 1301.51C1209.7 1297.83 1205.03 1292.76 1201.55 1286.3C1198.17 1279.73 1196.48 1272.32 1196.48 1264.06ZM1263.76 1264.36C1263.76 1258.69 1262.57 1253.77 1260.18 1249.59C1257.9 1245.42 1254.86 1242.23 1251.08 1240.04C1247.3 1237.86 1243.22 1236.76 1238.85 1236.76C1234.47 1236.76 1230.39 1237.86 1226.61 1240.04C1222.83 1242.13 1219.75 1245.27 1217.36 1249.44C1215.08 1253.52 1213.93 1258.4 1213.93 1264.06C1213.93 1269.73 1215.08 1274.71 1217.36 1278.98C1219.75 1283.26 1222.83 1286.54 1226.61 1288.83C1230.49 1291.02 1234.57 1292.11 1238.85 1292.11C1243.22 1292.11 1247.3 1291.02 1251.08 1288.83C1254.86 1286.64 1257.9 1283.46 1260.18 1279.28C1262.57 1275.01 1263.76 1270.03 1263.76 1264.36Z" fill="#091748"/>
<path d="M1417.06 1231.69C1414.38 1226.52 1410.65 1222.64 1405.87 1220.05C1401.1 1217.37 1395.58 1216.02 1389.31 1216.02C1382.45 1216.02 1376.33 1217.57 1370.96 1220.65C1365.59 1223.73 1361.36 1228.11 1358.28 1233.78C1355.3 1239.45 1353.8 1246.01 1353.8 1253.47C1353.8 1260.93 1355.3 1267.55 1358.28 1273.32C1361.36 1278.98 1365.59 1283.36 1370.96 1286.44C1376.33 1289.53 1382.45 1291.07 1389.31 1291.07C1398.56 1291.07 1406.07 1288.48 1411.84 1283.31C1417.61 1278.14 1421.14 1271.13 1422.43 1262.27H1383.49V1248.7H1440.64V1261.98C1439.54 1270.03 1436.66 1277.44 1431.98 1284.21C1427.41 1290.97 1421.39 1296.39 1413.93 1300.47C1406.57 1304.45 1398.36 1306.44 1389.31 1306.44C1379.57 1306.44 1370.66 1304.2 1362.61 1299.72C1354.55 1295.15 1348.13 1288.83 1343.36 1280.77C1338.69 1272.72 1336.35 1263.62 1336.35 1253.47C1336.35 1243.33 1338.69 1234.23 1343.36 1226.17C1348.13 1218.11 1354.55 1211.85 1362.61 1207.37C1370.76 1202.79 1379.66 1200.51 1389.31 1200.51C1400.35 1200.51 1410.15 1203.24 1418.7 1208.71C1427.36 1214.08 1433.62 1221.74 1437.5 1231.69H1417.06Z" fill="#091748"/>
<path d="M1466.07 1212.44C1462.98 1212.44 1460.4 1211.4 1458.31 1209.31C1456.22 1207.22 1455.17 1204.63 1455.17 1201.55C1455.17 1198.47 1456.22 1195.88 1458.31 1193.79C1460.4 1191.7 1462.98 1190.66 1466.07 1190.66C1469.05 1190.66 1471.59 1191.7 1473.67 1193.79C1475.76 1195.88 1476.81 1198.47 1476.81 1201.55C1476.81 1204.63 1475.76 1207.22 1473.67 1209.31C1471.59 1211.4 1469.05 1212.44 1466.07 1212.44ZM1474.42 1223.33V1305.54H1457.41V1223.33H1474.42Z" fill="#091748"/>
<path d="M1513.76 1195.14V1305.54H1496.75V1195.14H1513.76Z" fill="#091748"/>
<path d="M1628.71 1305.54L1604.83 1264.06H1591.85V1305.54H1574.85V1201.85H1610.65C1618.61 1201.85 1625.32 1203.24 1630.79 1206.03C1636.36 1208.81 1640.49 1212.54 1643.18 1217.22C1645.96 1221.89 1647.36 1227.11 1647.36 1232.88C1647.36 1239.65 1645.37 1245.81 1641.39 1251.38C1637.51 1256.85 1631.49 1260.58 1623.33 1262.57L1649 1305.54H1628.71ZM1591.85 1250.49H1610.65C1617.02 1250.49 1621.79 1248.9 1624.98 1245.71C1628.26 1242.53 1629.9 1238.25 1629.9 1232.88C1629.9 1227.51 1628.31 1223.33 1625.13 1220.35C1621.94 1217.27 1617.12 1215.73 1610.65 1215.73H1591.85V1250.49Z" fill="#091748"/>
<path d="M1704.77 1306.88C1697.01 1306.88 1690 1305.14 1683.74 1301.66C1677.47 1298.08 1672.55 1293.11 1668.96 1286.74C1665.38 1280.28 1663.59 1272.82 1663.59 1264.36C1663.59 1256.01 1665.43 1248.6 1669.11 1242.13C1672.79 1235.67 1677.82 1230.69 1684.18 1227.21C1690.55 1223.73 1697.66 1221.99 1705.52 1221.99C1713.38 1221.99 1720.49 1223.73 1726.85 1227.21C1733.22 1230.69 1738.24 1235.67 1741.92 1242.13C1745.6 1248.6 1747.44 1256.01 1747.44 1264.36C1747.44 1272.72 1745.55 1280.13 1741.77 1286.59C1737.99 1293.06 1732.82 1298.08 1726.26 1301.66C1719.79 1305.14 1712.63 1306.88 1704.77 1306.88ZM1704.77 1292.11C1709.15 1292.11 1713.23 1291.07 1717.01 1288.98C1720.89 1286.89 1724.02 1283.76 1726.41 1279.58C1728.79 1275.4 1729.99 1270.33 1729.99 1264.36C1729.99 1258.4 1728.84 1253.37 1726.55 1249.29C1724.27 1245.12 1721.23 1241.98 1717.45 1239.9C1713.67 1237.81 1709.6 1236.76 1705.22 1236.76C1700.84 1236.76 1696.77 1237.81 1692.99 1239.9C1689.31 1241.98 1686.37 1245.12 1684.18 1249.29C1681.99 1253.37 1680.9 1258.4 1680.9 1264.36C1680.9 1273.22 1683.14 1280.08 1687.61 1284.95C1692.19 1289.73 1697.91 1292.11 1704.77 1292.11Z" fill="#091748"/>
<path d="M1758.59 1264.06C1758.59 1255.81 1760.28 1248.5 1763.66 1242.13C1767.14 1235.77 1771.82 1230.84 1777.68 1227.36C1783.65 1223.78 1790.27 1221.99 1797.53 1221.99C1802.9 1221.99 1808.17 1223.19 1813.34 1225.57C1818.61 1227.86 1822.79 1230.94 1825.87 1234.82V1195.14H1843.03V1305.54H1825.87V1293.16C1823.09 1297.14 1819.21 1300.42 1814.24 1303.01C1809.36 1305.59 1803.74 1306.88 1797.38 1306.88C1790.22 1306.88 1783.65 1305.09 1777.68 1301.51C1771.82 1297.83 1767.14 1292.76 1763.66 1286.3C1760.28 1279.73 1758.59 1272.32 1758.59 1264.06ZM1825.87 1264.36C1825.87 1258.69 1824.68 1253.77 1822.29 1249.59C1820.01 1245.42 1816.97 1242.23 1813.19 1240.04C1809.41 1237.86 1805.33 1236.76 1800.96 1236.76C1796.58 1236.76 1792.5 1237.86 1788.72 1240.04C1784.94 1242.13 1781.86 1245.27 1779.47 1249.44C1777.19 1253.52 1776.04 1258.4 1776.04 1264.06C1776.04 1269.73 1777.19 1274.71 1779.47 1278.98C1781.86 1283.26 1784.94 1286.54 1788.72 1288.83C1792.6 1291.02 1796.68 1292.11 1800.96 1292.11C1805.33 1292.11 1809.41 1291.02 1813.19 1288.83C1816.97 1286.64 1820.01 1283.46 1822.29 1279.28C1824.68 1275.01 1825.87 1270.03 1825.87 1264.36Z" fill="#091748"/>
<path d="M1882.38 1235.27C1884.87 1231.09 1888.15 1227.86 1892.23 1225.57C1896.4 1223.19 1901.33 1221.99 1907 1221.99V1239.6H1902.67C1896.01 1239.6 1890.93 1241.29 1887.45 1244.67C1884.07 1248.05 1882.38 1253.92 1882.38 1262.27V1305.54H1865.37V1223.33H1882.38V1235.27Z" fill="#091748"/>
<path d="M1931.29 1212.44C1928.2 1212.44 1925.62 1211.4 1923.53 1209.31C1921.44 1207.22 1920.39 1204.63 1920.39 1201.55C1920.39 1198.47 1921.44 1195.88 1923.53 1193.79C1925.62 1191.7 1928.2 1190.66 1931.29 1190.66C1934.27 1190.66 1936.81 1191.7 1938.89 1193.79C1940.98 1195.88 1942.03 1198.47 1942.03 1201.55C1942.03 1204.63 1940.98 1207.22 1938.89 1209.31C1936.81 1211.4 1934.27 1212.44 1931.29 1212.44ZM1939.64 1223.33V1305.54H1922.63V1223.33H1939.64Z" fill="#091748"/>
<path d="M1995.09 1221.99C2001.46 1221.99 2007.08 1223.28 2011.95 1225.87C2016.92 1228.36 2020.8 1231.49 2023.59 1235.27V1223.33H2040.75V1306.88C2040.75 1314.44 2039.16 1321.16 2035.97 1327.03C2032.79 1332.99 2028.16 1337.67 2022.1 1341.05C2016.13 1344.43 2008.97 1346.12 2000.61 1346.12C1989.47 1346.12 1980.22 1343.49 1972.86 1338.22C1965.5 1333.04 1961.32 1325.98 1960.33 1317.03H1977.19C1978.48 1321.31 1981.22 1324.74 1985.39 1327.32C1989.67 1330.01 1994.74 1331.35 2000.61 1331.35C2007.48 1331.35 2013 1329.26 2017.17 1325.09C2021.45 1320.91 2023.59 1314.84 2023.59 1306.88V1293.16C2020.7 1297.04 2016.78 1300.32 2011.8 1303.01C2006.93 1305.59 2001.36 1306.88 1995.09 1306.88C1987.93 1306.88 1981.37 1305.09 1975.4 1301.51C1969.53 1297.83 1964.86 1292.76 1961.37 1286.3C1957.99 1279.73 1956.3 1272.32 1956.3 1264.06C1956.3 1255.81 1957.99 1248.5 1961.37 1242.13C1964.86 1235.77 1969.53 1230.84 1975.4 1227.36C1981.37 1223.78 1987.93 1221.99 1995.09 1221.99ZM2023.59 1264.36C2023.59 1258.69 2022.4 1253.77 2020.01 1249.59C2017.72 1245.42 2014.69 1242.23 2010.91 1240.04C2007.13 1237.86 2003.05 1236.76 1998.67 1236.76C1994.3 1236.76 1990.22 1237.86 1986.44 1240.04C1982.66 1242.13 1979.58 1245.27 1977.19 1249.44C1974.9 1253.52 1973.76 1258.4 1973.76 1264.06C1973.76 1269.73 1974.9 1274.71 1977.19 1278.98C1979.58 1283.26 1982.66 1286.54 1986.44 1288.83C1990.32 1291.02 1994.4 1292.11 1998.67 1292.11C2003.05 1292.11 2007.13 1291.02 2010.91 1288.83C2014.69 1286.64 2017.72 1283.46 2020.01 1279.28C2022.4 1275.01 2023.59 1270.03 2023.59 1264.36Z" fill="#091748"/>
<path d="M2137.54 1223.33V1305.54H2120.53V1295.84C2117.84 1299.23 2114.31 1301.91 2109.93 1303.9C2105.66 1305.79 2101.08 1306.74 2096.21 1306.74C2089.74 1306.74 2083.92 1305.39 2078.75 1302.71C2073.68 1300.02 2069.65 1296.04 2066.67 1290.77C2063.78 1285.5 2062.34 1279.13 2062.34 1271.67V1223.33H2079.2V1269.14C2079.2 1276.5 2081.04 1282.17 2084.72 1286.15C2088.4 1290.03 2093.42 1291.96 2099.79 1291.96C2106.15 1291.96 2111.18 1290.03 2114.86 1286.15C2118.64 1282.17 2120.53 1276.5 2120.53 1269.14V1223.33H2137.54Z" fill="#091748"/>
<path d="M2235.32 1262.42C2235.32 1265.51 2235.12 1268.29 2234.72 1270.78H2171.91C2172.41 1277.34 2174.85 1282.62 2179.22 1286.59C2183.6 1290.57 2188.97 1292.56 2195.34 1292.56C2204.49 1292.56 2210.95 1288.73 2214.73 1281.07H2233.08C2230.6 1288.63 2226.07 1294.85 2219.51 1299.72C2213.04 1304.5 2204.98 1306.88 2195.34 1306.88C2187.48 1306.88 2180.42 1305.14 2174.15 1301.66C2167.98 1298.08 2163.11 1293.11 2159.53 1286.74C2156.05 1280.28 2154.31 1272.82 2154.31 1264.36C2154.31 1255.91 2156 1248.5 2159.38 1242.13C2162.86 1235.67 2167.69 1230.69 2173.85 1227.21C2180.12 1223.73 2187.28 1221.99 2195.34 1221.99C2203.09 1221.99 2210.01 1223.68 2216.08 1227.06C2222.14 1230.45 2226.87 1235.22 2230.25 1241.39C2233.63 1247.45 2235.32 1254.47 2235.32 1262.42ZM2217.57 1257.05C2217.47 1250.79 2215.23 1245.76 2210.85 1241.98C2206.48 1238.2 2201.06 1236.31 2194.59 1236.31C2188.72 1236.31 2183.7 1238.2 2179.52 1241.98C2175.34 1245.66 2172.86 1250.69 2172.06 1257.05H2217.57Z" fill="#091748"/>
<path d="M2281.9 1306.88C2275.43 1306.88 2269.61 1305.74 2264.44 1303.45C2259.37 1301.07 2255.34 1297.88 2252.36 1293.9C2249.37 1289.83 2247.78 1285.3 2247.58 1280.33H2265.19C2265.49 1283.81 2267.13 1286.74 2270.11 1289.13C2273.2 1291.42 2277.03 1292.56 2281.6 1292.56C2286.38 1292.56 2290.06 1291.67 2292.64 1289.88C2295.33 1287.99 2296.67 1285.6 2296.67 1282.71C2296.67 1279.63 2295.18 1277.34 2292.19 1275.85C2289.31 1274.36 2284.68 1272.72 2278.32 1270.93C2272.15 1269.24 2267.13 1267.6 2263.25 1266C2259.37 1264.41 2255.99 1261.98 2253.1 1258.69C2250.32 1255.41 2248.93 1251.08 2248.93 1245.71C2248.93 1241.34 2250.22 1237.36 2252.81 1233.78C2255.39 1230.1 2259.07 1227.21 2263.85 1225.12C2268.72 1223.04 2274.29 1221.99 2280.56 1221.99C2289.91 1221.99 2297.42 1224.38 2303.08 1229.15C2308.85 1233.83 2311.94 1240.24 2312.34 1248.4H2295.33C2295.03 1244.72 2293.54 1241.78 2290.85 1239.6C2288.17 1237.41 2284.53 1236.31 2279.96 1236.31C2275.48 1236.31 2272.05 1237.16 2269.66 1238.85C2267.28 1240.54 2266.08 1242.78 2266.08 1245.56C2266.08 1247.75 2266.88 1249.59 2268.47 1251.08C2270.06 1252.58 2272 1253.77 2274.29 1254.67C2276.58 1255.46 2279.96 1256.51 2284.44 1257.8C2290.4 1259.39 2295.28 1261.03 2299.06 1262.72C2302.94 1264.31 2306.27 1266.7 2309.05 1269.88C2311.84 1273.07 2313.28 1277.29 2313.38 1282.57C2313.38 1287.24 2312.09 1291.42 2309.5 1295.1C2306.91 1298.78 2303.23 1301.66 2298.46 1303.75C2293.78 1305.84 2288.26 1306.88 2281.9 1306.88Z" fill="#091748"/>
<path d="M176.717 1284.36H133.301L125.841 1305.54H108.086L145.236 1201.7H164.93L202.08 1305.54H184.177L176.717 1284.36ZM171.943 1270.48L155.083 1222.29L138.075 1270.48H171.943Z" stroke="black" stroke-width="3.61534" mask="url(#path-13-outside-1_113_172)"/>
<path d="M212.564 1264.06C212.564 1255.81 214.255 1248.5 217.636 1242.13C221.118 1235.77 225.793 1230.84 231.661 1227.36C237.629 1223.78 244.243 1221.99 251.504 1221.99C256.875 1221.99 262.147 1223.19 267.319 1225.57C272.591 1227.86 276.768 1230.94 279.852 1234.82V1195.14H297.009V1305.54H279.852V1293.16C277.067 1297.14 273.187 1300.42 268.214 1303.01C263.34 1305.59 257.721 1306.88 251.355 1306.88C244.194 1306.88 237.629 1305.09 231.661 1301.51C225.793 1297.83 221.118 1292.76 217.636 1286.3C214.255 1279.73 212.564 1272.32 212.564 1264.06ZM279.852 1264.36C279.852 1258.69 278.658 1253.77 276.271 1249.59C273.983 1245.42 270.949 1242.23 267.17 1240.04C263.39 1237.86 259.312 1236.76 254.936 1236.76C250.559 1236.76 246.481 1237.86 242.702 1240.04C238.922 1242.13 235.839 1245.27 233.451 1249.44C231.164 1253.52 230.02 1258.4 230.02 1264.06C230.02 1269.73 231.164 1274.71 233.451 1278.98C235.839 1283.26 238.922 1286.54 242.702 1288.83C246.581 1291.02 250.659 1292.11 254.936 1292.11C259.312 1292.11 263.39 1291.02 267.17 1288.83C270.949 1286.64 273.983 1283.46 276.271 1279.28C278.658 1275.01 279.852 1270.03 279.852 1264.36Z" stroke="black" stroke-width="3.61534" mask="url(#path-13-outside-1_113_172)"/>
<path d="M351.128 1290.32L374.403 1223.33H392.456L361.124 1305.54H340.833L309.651 1223.33H327.853L351.128 1290.32Z" stroke="black" stroke-width="3.61534" mask="url(#path-13-outside-1_113_172)"/>
<path d="M412.175 1306.59C409.092 1306.59 406.506 1305.54 404.417 1303.45C402.328 1301.36 401.284 1298.78 401.284 1295.69C401.284 1292.61 402.328 1290.03 404.417 1287.94C406.506 1285.85 409.092 1284.8 412.175 1284.8C415.159 1284.8 417.695 1285.85 419.784 1287.94C421.873 1290.03 422.917 1292.61 422.917 1295.69C422.917 1298.78 421.873 1301.36 419.784 1303.45C417.695 1305.54 415.159 1306.59 412.175 1306.59Z" stroke="black" stroke-width="3.61534" mask="url(#path-13-outside-1_113_172)"/>
<path d="M536.602 1201.85V1276.6C536.602 1285.85 533.767 1293.16 528.098 1298.53C522.528 1303.9 515.167 1306.59 506.016 1306.59C496.866 1306.59 489.456 1303.9 483.786 1298.53C478.216 1293.16 475.431 1285.85 475.431 1276.6H492.589C492.688 1281.17 493.832 1284.8 496.02 1287.49C498.308 1290.17 501.64 1291.52 506.016 1291.52C510.393 1291.52 513.725 1290.17 516.013 1287.49C518.3 1284.7 519.444 1281.07 519.444 1276.6V1201.85H536.602Z" stroke="black" stroke-width="3.61534" mask="url(#path-13-outside-1_113_172)"/>
<path d="M599.929 1306.88C592.171 1306.88 585.158 1305.14 578.892 1301.66C572.626 1298.08 567.702 1293.11 564.122 1286.74C560.541 1280.28 558.751 1272.82 558.751 1264.36C558.751 1256.01 560.591 1248.6 564.271 1242.13C567.951 1235.67 572.974 1230.69 579.34 1227.21C585.705 1223.73 592.817 1221.99 600.675 1221.99C608.533 1221.99 615.644 1223.73 622.01 1227.21C628.376 1230.69 633.399 1235.67 637.079 1242.13C640.759 1248.6 642.599 1256.01 642.599 1264.36C642.599 1272.72 640.709 1280.13 636.93 1286.59C633.15 1293.06 627.978 1298.08 621.413 1301.66C614.948 1305.14 607.787 1306.88 599.929 1306.88ZM599.929 1292.11C604.305 1292.11 608.383 1291.07 612.163 1288.98C616.042 1286.89 619.175 1283.76 621.562 1279.58C623.95 1275.4 625.143 1270.33 625.143 1264.36C625.143 1258.4 623.999 1253.37 621.712 1249.29C619.424 1245.12 616.39 1241.98 612.611 1239.9C608.831 1237.81 604.753 1236.76 600.376 1236.76C596 1236.76 591.922 1237.81 588.142 1239.9C584.462 1241.98 581.528 1245.12 579.34 1249.29C577.151 1253.37 576.057 1258.4 576.057 1264.36C576.057 1273.22 578.295 1280.08 582.771 1284.95C587.347 1289.73 593.066 1292.11 599.929 1292.11Z" stroke="black" stroke-width="3.61534" mask="url(#path-13-outside-1_113_172)"/>
<path d="M689.252 1306.88C682.787 1306.88 676.968 1305.74 671.796 1303.45C666.724 1301.07 662.695 1297.88 659.711 1293.9C656.727 1289.83 655.136 1285.3 654.937 1280.33H672.542C672.841 1283.81 674.482 1286.74 677.466 1289.13C680.549 1291.42 684.378 1292.56 688.954 1292.56C693.728 1292.56 697.408 1291.67 699.994 1289.88C702.68 1287.99 704.023 1285.6 704.023 1282.71C704.023 1279.63 702.531 1277.34 699.547 1275.85C696.662 1274.36 692.037 1272.72 685.672 1270.93C679.505 1269.24 674.482 1267.6 670.603 1266C666.724 1264.41 663.342 1261.98 660.457 1258.69C657.672 1255.41 656.28 1251.08 656.28 1245.71C656.28 1241.34 657.573 1237.36 660.159 1233.78C662.745 1230.1 666.425 1227.21 671.199 1225.12C676.073 1223.04 681.643 1221.99 687.909 1221.99C697.259 1221.99 704.769 1224.38 710.438 1229.15C716.207 1233.83 719.291 1240.24 719.688 1248.4H702.68C702.382 1244.72 700.89 1241.78 698.204 1239.6C695.518 1237.41 691.888 1236.31 687.313 1236.31C682.837 1236.31 679.405 1237.16 677.018 1238.85C674.631 1240.54 673.437 1242.78 673.437 1245.56C673.437 1247.75 674.233 1249.59 675.825 1251.08C677.416 1252.58 679.356 1253.77 681.643 1254.67C683.931 1255.46 687.313 1256.51 691.789 1257.8C697.756 1259.39 702.63 1261.03 706.41 1262.72C710.289 1264.31 713.621 1266.7 716.406 1269.88C719.191 1273.07 720.633 1277.29 720.733 1282.57C720.733 1287.24 719.44 1291.42 716.854 1295.1C714.268 1298.78 710.587 1301.66 705.813 1303.75C701.138 1305.84 695.618 1306.88 689.252 1306.88Z" stroke="black" stroke-width="3.61534" mask="url(#path-13-outside-1_113_172)"/>
<path d="M814.455 1262.42C814.455 1265.51 814.256 1268.29 813.858 1270.78H751.047C751.544 1277.34 753.981 1282.62 758.357 1286.59C762.734 1290.57 768.105 1292.56 774.47 1292.56C783.621 1292.56 790.086 1288.73 793.866 1281.07H812.217C809.731 1288.63 805.205 1294.85 798.64 1299.72C792.175 1304.5 784.118 1306.88 774.47 1306.88C766.613 1306.88 759.551 1305.14 753.284 1301.66C747.118 1298.08 742.244 1293.11 738.663 1286.74C735.182 1280.28 733.441 1272.82 733.441 1264.36C733.441 1255.91 735.132 1248.5 738.514 1242.13C741.995 1235.67 746.819 1230.69 752.986 1227.21C759.252 1223.73 766.414 1221.99 774.47 1221.99C782.229 1221.99 789.141 1223.68 795.209 1227.06C801.276 1230.45 806.001 1235.22 809.382 1241.39C812.764 1247.45 814.455 1254.47 814.455 1262.42ZM796.701 1257.05C796.601 1250.79 794.363 1245.76 789.987 1241.98C785.61 1238.2 780.19 1236.31 773.724 1236.31C767.856 1236.31 762.833 1238.2 758.656 1241.98C754.478 1245.66 751.991 1250.69 751.196 1257.05H796.701ZM789.39 1201.25L756.418 1217.52V1204.98L789.39 1186.78V1201.25Z" stroke="black" stroke-width="3.61534" mask="url(#path-13-outside-1_113_172)"/>
<path d="M903.817 1201.85C914.858 1201.85 924.506 1203.99 932.761 1208.27C941.116 1212.44 947.532 1218.51 952.008 1226.47C956.583 1234.33 958.871 1243.53 958.871 1254.07C958.871 1264.61 956.583 1273.76 952.008 1281.52C947.532 1289.28 941.116 1295.25 932.761 1299.42C924.506 1303.5 914.858 1305.54 903.817 1305.54H869.949V1201.85H903.817ZM903.817 1291.67C915.952 1291.67 925.252 1288.38 931.717 1281.82C938.182 1275.25 941.415 1266 941.415 1254.07C941.415 1242.03 938.182 1232.63 931.717 1225.87C925.252 1219.11 915.952 1215.73 903.817 1215.73H886.958V1291.67H903.817Z" stroke="black" stroke-width="3.61534" mask="url(#path-13-outside-1_113_172)"/>
<path d="M970.058 1264.06C970.058 1255.81 971.749 1248.5 975.131 1242.13C978.612 1235.77 983.287 1230.84 989.155 1227.36C995.123 1223.78 1001.69 1221.99 1008.85 1221.99C1015.31 1221.99 1020.93 1223.28 1025.71 1225.87C1030.58 1228.36 1034.46 1231.49 1037.35 1235.27V1223.33H1054.5V1305.54H1037.35V1293.31C1034.46 1297.19 1030.53 1300.42 1025.56 1303.01C1020.59 1305.59 1014.92 1306.88 1008.55 1306.88C1001.49 1306.88 995.024 1305.09 989.155 1301.51C983.287 1297.83 978.612 1292.76 975.131 1286.3C971.749 1279.73 970.058 1272.32 970.058 1264.06ZM1037.35 1264.36C1037.35 1258.69 1036.15 1253.77 1033.77 1249.59C1031.48 1245.42 1028.44 1242.23 1024.66 1240.04C1020.88 1237.86 1016.81 1236.76 1012.43 1236.76C1008.05 1236.76 1003.98 1237.86 1000.2 1240.04C996.416 1242.13 993.333 1245.27 990.946 1249.44C988.658 1253.52 987.514 1258.4 987.514 1264.06C987.514 1269.73 988.658 1274.71 990.946 1278.98C993.333 1283.26 996.416 1286.54 1000.2 1288.83C1004.07 1291.02 1008.15 1292.11 1012.43 1292.11C1016.81 1292.11 1020.88 1291.02 1024.66 1288.83C1028.44 1286.64 1031.48 1283.46 1033.77 1279.28C1036.15 1275.01 1037.35 1270.03 1037.35 1264.36Z" stroke="black" stroke-width="3.61534" mask="url(#path-13-outside-1_113_172)"/>
<path d="M1108.62 1290.32L1131.9 1223.33H1149.95L1118.62 1305.54H1098.33L1067.15 1223.33H1085.35L1108.62 1290.32Z" stroke="black" stroke-width="3.61534" mask="url(#path-13-outside-1_113_172)"/>
<path d="M1171.46 1212.44C1168.38 1212.44 1165.79 1211.4 1163.7 1209.31C1161.61 1207.22 1160.57 1204.63 1160.57 1201.55C1160.57 1198.47 1161.61 1195.88 1163.7 1193.79C1165.79 1191.7 1168.38 1190.66 1171.46 1190.66C1174.44 1190.66 1176.98 1191.7 1179.07 1193.79C1181.16 1195.88 1182.2 1198.47 1182.2 1201.55C1182.2 1204.63 1181.16 1207.22 1179.07 1209.31C1176.98 1211.4 1174.44 1212.44 1171.46 1212.44ZM1179.81 1223.33V1305.54H1162.81V1223.33H1179.81Z" stroke="black" stroke-width="3.61534" mask="url(#path-13-outside-1_113_172)"/>
<path d="M1196.48 1264.06C1196.48 1255.81 1198.17 1248.5 1201.55 1242.13C1205.03 1235.77 1209.7 1230.84 1215.57 1227.36C1221.54 1223.78 1228.16 1221.99 1235.42 1221.99C1240.79 1221.99 1246.06 1223.19 1251.23 1225.57C1256.5 1227.86 1260.68 1230.94 1263.76 1234.82V1195.14H1280.92V1305.54H1263.76V1293.16C1260.98 1297.14 1257.1 1300.42 1252.13 1303.01C1247.25 1305.59 1241.63 1306.88 1235.27 1306.88C1228.11 1306.88 1221.54 1305.09 1215.57 1301.51C1209.7 1297.83 1205.03 1292.76 1201.55 1286.3C1198.17 1279.73 1196.48 1272.32 1196.48 1264.06ZM1263.76 1264.36C1263.76 1258.69 1262.57 1253.77 1260.18 1249.59C1257.9 1245.42 1254.86 1242.23 1251.08 1240.04C1247.3 1237.86 1243.22 1236.76 1238.85 1236.76C1234.47 1236.76 1230.39 1237.86 1226.61 1240.04C1222.83 1242.13 1219.75 1245.27 1217.36 1249.44C1215.08 1253.52 1213.93 1258.4 1213.93 1264.06C1213.93 1269.73 1215.08 1274.71 1217.36 1278.98C1219.75 1283.26 1222.83 1286.54 1226.61 1288.83C1230.49 1291.02 1234.57 1292.11 1238.85 1292.11C1243.22 1292.11 1247.3 1291.02 1251.08 1288.83C1254.86 1286.64 1257.9 1283.46 1260.18 1279.28C1262.57 1275.01 1263.76 1270.03 1263.76 1264.36Z" stroke="black" stroke-width="3.61534" mask="url(#path-13-outside-1_113_172)"/>
<path d="M1417.06 1231.69C1414.38 1226.52 1410.65 1222.64 1405.87 1220.05C1401.1 1217.37 1395.58 1216.02 1389.31 1216.02C1382.45 1216.02 1376.33 1217.57 1370.96 1220.65C1365.59 1223.73 1361.36 1228.11 1358.28 1233.78C1355.3 1239.45 1353.8 1246.01 1353.8 1253.47C1353.8 1260.93 1355.3 1267.55 1358.28 1273.32C1361.36 1278.98 1365.59 1283.36 1370.96 1286.44C1376.33 1289.53 1382.45 1291.07 1389.31 1291.07C1398.56 1291.07 1406.07 1288.48 1411.84 1283.31C1417.61 1278.14 1421.14 1271.13 1422.43 1262.27H1383.49V1248.7H1440.64V1261.98C1439.54 1270.03 1436.66 1277.44 1431.98 1284.21C1427.41 1290.97 1421.39 1296.39 1413.93 1300.47C1406.57 1304.45 1398.36 1306.44 1389.31 1306.44C1379.57 1306.44 1370.66 1304.2 1362.61 1299.72C1354.55 1295.15 1348.13 1288.83 1343.36 1280.77C1338.69 1272.72 1336.35 1263.62 1336.35 1253.47C1336.35 1243.33 1338.69 1234.23 1343.36 1226.17C1348.13 1218.11 1354.55 1211.85 1362.61 1207.37C1370.76 1202.79 1379.66 1200.51 1389.31 1200.51C1400.35 1200.51 1410.15 1203.24 1418.7 1208.71C1427.36 1214.08 1433.62 1221.74 1437.5 1231.69H1417.06Z" stroke="black" stroke-width="3.61534" mask="url(#path-13-outside-1_113_172)"/>
<path d="M1466.07 1212.44C1462.98 1212.44 1460.4 1211.4 1458.31 1209.31C1456.22 1207.22 1455.17 1204.63 1455.17 1201.55C1455.17 1198.47 1456.22 1195.88 1458.31 1193.79C1460.4 1191.7 1462.98 1190.66 1466.07 1190.66C1469.05 1190.66 1471.59 1191.7 1473.67 1193.79C1475.76 1195.88 1476.81 1198.47 1476.81 1201.55C1476.81 1204.63 1475.76 1207.22 1473.67 1209.31C1471.59 1211.4 1469.05 1212.44 1466.07 1212.44ZM1474.42 1223.33V1305.54H1457.41V1223.33H1474.42Z" stroke="black" stroke-width="3.61534" mask="url(#path-13-outside-1_113_172)"/>
<path d="M1513.76 1195.14V1305.54H1496.75V1195.14H1513.76Z" stroke="black" stroke-width="3.61534" mask="url(#path-13-outside-1_113_172)"/>
<path d="M1628.71 1305.54L1604.83 1264.06H1591.85V1305.54H1574.85V1201.85H1610.65C1618.61 1201.85 1625.32 1203.24 1630.79 1206.03C1636.36 1208.81 1640.49 1212.54 1643.18 1217.22C1645.96 1221.89 1647.36 1227.11 1647.36 1232.88C1647.36 1239.65 1645.37 1245.81 1641.39 1251.38C1637.51 1256.85 1631.49 1260.58 1623.33 1262.57L1649 1305.54H1628.71ZM1591.85 1250.49H1610.65C1617.02 1250.49 1621.79 1248.9 1624.98 1245.71C1628.26 1242.53 1629.9 1238.25 1629.9 1232.88C1629.9 1227.51 1628.31 1223.33 1625.13 1220.35C1621.94 1217.27 1617.12 1215.73 1610.65 1215.73H1591.85V1250.49Z" stroke="black" stroke-width="3.61534" mask="url(#path-13-outside-1_113_172)"/>
<path d="M1704.77 1306.88C1697.01 1306.88 1690 1305.14 1683.74 1301.66C1677.47 1298.08 1672.55 1293.11 1668.96 1286.74C1665.38 1280.28 1663.59 1272.82 1663.59 1264.36C1663.59 1256.01 1665.43 1248.6 1669.11 1242.13C1672.79 1235.67 1677.82 1230.69 1684.18 1227.21C1690.55 1223.73 1697.66 1221.99 1705.52 1221.99C1713.38 1221.99 1720.49 1223.73 1726.85 1227.21C1733.22 1230.69 1738.24 1235.67 1741.92 1242.13C1745.6 1248.6 1747.44 1256.01 1747.44 1264.36C1747.44 1272.72 1745.55 1280.13 1741.77 1286.59C1737.99 1293.06 1732.82 1298.08 1726.26 1301.66C1719.79 1305.14 1712.63 1306.88 1704.77 1306.88ZM1704.77 1292.11C1709.15 1292.11 1713.23 1291.07 1717.01 1288.98C1720.89 1286.89 1724.02 1283.76 1726.41 1279.58C1728.79 1275.4 1729.99 1270.33 1729.99 1264.36C1729.99 1258.4 1728.84 1253.37 1726.55 1249.29C1724.27 1245.12 1721.23 1241.98 1717.45 1239.9C1713.67 1237.81 1709.6 1236.76 1705.22 1236.76C1700.84 1236.76 1696.77 1237.81 1692.99 1239.9C1689.31 1241.98 1686.37 1245.12 1684.18 1249.29C1681.99 1253.37 1680.9 1258.4 1680.9 1264.36C1680.9 1273.22 1683.14 1280.08 1687.61 1284.95C1692.19 1289.73 1697.91 1292.11 1704.77 1292.11Z" stroke="black" stroke-width="3.61534" mask="url(#path-13-outside-1_113_172)"/>
<path d="M1758.59 1264.06C1758.59 1255.81 1760.28 1248.5 1763.66 1242.13C1767.14 1235.77 1771.82 1230.84 1777.68 1227.36C1783.65 1223.78 1790.27 1221.99 1797.53 1221.99C1802.9 1221.99 1808.17 1223.19 1813.34 1225.57C1818.61 1227.86 1822.79 1230.94 1825.87 1234.82V1195.14H1843.03V1305.54H1825.87V1293.16C1823.09 1297.14 1819.21 1300.42 1814.24 1303.01C1809.36 1305.59 1803.74 1306.88 1797.38 1306.88C1790.22 1306.88 1783.65 1305.09 1777.68 1301.51C1771.82 1297.83 1767.14 1292.76 1763.66 1286.3C1760.28 1279.73 1758.59 1272.32 1758.59 1264.06ZM1825.87 1264.36C1825.87 1258.69 1824.68 1253.77 1822.29 1249.59C1820.01 1245.42 1816.97 1242.23 1813.19 1240.04C1809.41 1237.86 1805.33 1236.76 1800.96 1236.76C1796.58 1236.76 1792.5 1237.86 1788.72 1240.04C1784.94 1242.13 1781.86 1245.27 1779.47 1249.44C1777.19 1253.52 1776.04 1258.4 1776.04 1264.06C1776.04 1269.73 1777.19 1274.71 1779.47 1278.98C1781.86 1283.26 1784.94 1286.54 1788.72 1288.83C1792.6 1291.02 1796.68 1292.11 1800.96 1292.11C1805.33 1292.11 1809.41 1291.02 1813.19 1288.83C1816.97 1286.64 1820.01 1283.46 1822.29 1279.28C1824.68 1275.01 1825.87 1270.03 1825.87 1264.36Z" stroke="black" stroke-width="3.61534" mask="url(#path-13-outside-1_113_172)"/>
<path d="M1882.38 1235.27C1884.87 1231.09 1888.15 1227.86 1892.23 1225.57C1896.4 1223.19 1901.33 1221.99 1907 1221.99V1239.6H1902.67C1896.01 1239.6 1890.93 1241.29 1887.45 1244.67C1884.07 1248.05 1882.38 1253.92 1882.38 1262.27V1305.54H1865.37V1223.33H1882.38V1235.27Z" stroke="black" stroke-width="3.61534" mask="url(#path-13-outside-1_113_172)"/>
<path d="M1931.29 1212.44C1928.2 1212.44 1925.62 1211.4 1923.53 1209.31C1921.44 1207.22 1920.39 1204.63 1920.39 1201.55C1920.39 1198.47 1921.44 1195.88 1923.53 1193.79C1925.62 1191.7 1928.2 1190.66 1931.29 1190.66C1934.27 1190.66 1936.81 1191.7 1938.89 1193.79C1940.98 1195.88 1942.03 1198.47 1942.03 1201.55C1942.03 1204.63 1940.98 1207.22 1938.89 1209.31C1936.81 1211.4 1934.27 1212.44 1931.29 1212.44ZM1939.64 1223.33V1305.54H1922.63V1223.33H1939.64Z" stroke="black" stroke-width="3.61534" mask="url(#path-13-outside-1_113_172)"/>
<path d="M1995.09 1221.99C2001.46 1221.99 2007.08 1223.28 2011.95 1225.87C2016.92 1228.36 2020.8 1231.49 2023.59 1235.27V1223.33H2040.75V1306.88C2040.75 1314.44 2039.16 1321.16 2035.97 1327.03C2032.79 1332.99 2028.16 1337.67 2022.1 1341.05C2016.13 1344.43 2008.97 1346.12 2000.61 1346.12C1989.47 1346.12 1980.22 1343.49 1972.86 1338.22C1965.5 1333.04 1961.32 1325.98 1960.33 1317.03H1977.19C1978.48 1321.31 1981.22 1324.74 1985.39 1327.32C1989.67 1330.01 1994.74 1331.35 2000.61 1331.35C2007.48 1331.35 2013 1329.26 2017.17 1325.09C2021.45 1320.91 2023.59 1314.84 2023.59 1306.88V1293.16C2020.7 1297.04 2016.78 1300.32 2011.8 1303.01C2006.93 1305.59 2001.36 1306.88 1995.09 1306.88C1987.93 1306.88 1981.37 1305.09 1975.4 1301.51C1969.53 1297.83 1964.86 1292.76 1961.37 1286.3C1957.99 1279.73 1956.3 1272.32 1956.3 1264.06C1956.3 1255.81 1957.99 1248.5 1961.37 1242.13C1964.86 1235.77 1969.53 1230.84 1975.4 1227.36C1981.37 1223.78 1987.93 1221.99 1995.09 1221.99ZM2023.59 1264.36C2023.59 1258.69 2022.4 1253.77 2020.01 1249.59C2017.72 1245.42 2014.69 1242.23 2010.91 1240.04C2007.13 1237.86 2003.05 1236.76 1998.67 1236.76C1994.3 1236.76 1990.22 1237.86 1986.44 1240.04C1982.66 1242.13 1979.58 1245.27 1977.19 1249.44C1974.9 1253.52 1973.76 1258.4 1973.76 1264.06C1973.76 1269.73 1974.9 1274.71 1977.19 1278.98C1979.58 1283.26 1982.66 1286.54 1986.44 1288.83C1990.32 1291.02 1994.4 1292.11 1998.67 1292.11C2003.05 1292.11 2007.13 1291.02 2010.91 1288.83C2014.69 1286.64 2017.72 1283.46 2020.01 1279.28C2022.4 1275.01 2023.59 1270.03 2023.59 1264.36Z" stroke="black" stroke-width="3.61534" mask="url(#path-13-outside-1_113_172)"/>
<path d="M2137.54 1223.33V1305.54H2120.53V1295.84C2117.84 1299.23 2114.31 1301.91 2109.93 1303.9C2105.66 1305.79 2101.08 1306.74 2096.21 1306.74C2089.74 1306.74 2083.92 1305.39 2078.75 1302.71C2073.68 1300.02 2069.65 1296.04 2066.67 1290.77C2063.78 1285.5 2062.34 1279.13 2062.34 1271.67V1223.33H2079.2V1269.14C2079.2 1276.5 2081.04 1282.17 2084.72 1286.15C2088.4 1290.03 2093.42 1291.96 2099.79 1291.96C2106.15 1291.96 2111.18 1290.03 2114.86 1286.15C2118.64 1282.17 2120.53 1276.5 2120.53 1269.14V1223.33H2137.54Z" stroke="black" stroke-width="3.61534" mask="url(#path-13-outside-1_113_172)"/>
<path d="M2235.32 1262.42C2235.32 1265.51 2235.12 1268.29 2234.72 1270.78H2171.91C2172.41 1277.34 2174.85 1282.62 2179.22 1286.59C2183.6 1290.57 2188.97 1292.56 2195.34 1292.56C2204.49 1292.56 2210.95 1288.73 2214.73 1281.07H2233.08C2230.6 1288.63 2226.07 1294.85 2219.51 1299.72C2213.04 1304.5 2204.98 1306.88 2195.34 1306.88C2187.48 1306.88 2180.42 1305.14 2174.15 1301.66C2167.98 1298.08 2163.11 1293.11 2159.53 1286.74C2156.05 1280.28 2154.31 1272.82 2154.31 1264.36C2154.31 1255.91 2156 1248.5 2159.38 1242.13C2162.86 1235.67 2167.69 1230.69 2173.85 1227.21C2180.12 1223.73 2187.28 1221.99 2195.34 1221.99C2203.09 1221.99 2210.01 1223.68 2216.08 1227.06C2222.14 1230.45 2226.87 1235.22 2230.25 1241.39C2233.63 1247.45 2235.32 1254.47 2235.32 1262.42ZM2217.57 1257.05C2217.47 1250.79 2215.23 1245.76 2210.85 1241.98C2206.48 1238.2 2201.06 1236.31 2194.59 1236.31C2188.72 1236.31 2183.7 1238.2 2179.52 1241.98C2175.34 1245.66 2172.86 1250.69 2172.06 1257.05H2217.57Z" stroke="black" stroke-width="3.61534" mask="url(#path-13-outside-1_113_172)"/>
<path d="M2281.9 1306.88C2275.43 1306.88 2269.61 1305.74 2264.44 1303.45C2259.37 1301.07 2255.34 1297.88 2252.36 1293.9C2249.37 1289.83 2247.78 1285.3 2247.58 1280.33H2265.19C2265.49 1283.81 2267.13 1286.74 2270.11 1289.13C2273.2 1291.42 2277.03 1292.56 2281.6 1292.56C2286.38 1292.56 2290.06 1291.67 2292.64 1289.88C2295.33 1287.99 2296.67 1285.6 2296.67 1282.71C2296.67 1279.63 2295.18 1277.34 2292.19 1275.85C2289.31 1274.36 2284.68 1272.72 2278.32 1270.93C2272.15 1269.24 2267.13 1267.6 2263.25 1266C2259.37 1264.41 2255.99 1261.98 2253.1 1258.69C2250.32 1255.41 2248.93 1251.08 2248.93 1245.71C2248.93 1241.34 2250.22 1237.36 2252.81 1233.78C2255.39 1230.1 2259.07 1227.21 2263.85 1225.12C2268.72 1223.04 2274.29 1221.99 2280.56 1221.99C2289.91 1221.99 2297.42 1224.38 2303.08 1229.15C2308.85 1233.83 2311.94 1240.24 2312.34 1248.4H2295.33C2295.03 1244.72 2293.54 1241.78 2290.85 1239.6C2288.17 1237.41 2284.53 1236.31 2279.96 1236.31C2275.48 1236.31 2272.05 1237.16 2269.66 1238.85C2267.28 1240.54 2266.08 1242.78 2266.08 1245.56C2266.08 1247.75 2266.88 1249.59 2268.47 1251.08C2270.06 1252.58 2272 1253.77 2274.29 1254.67C2276.58 1255.46 2279.96 1256.51 2284.44 1257.8C2290.4 1259.39 2295.28 1261.03 2299.06 1262.72C2302.94 1264.31 2306.27 1266.7 2309.05 1269.88C2311.84 1273.07 2313.28 1277.29 2313.38 1282.57C2313.38 1287.24 2312.09 1291.42 2309.5 1295.1C2306.91 1298.78 2303.23 1301.66 2298.46 1303.75C2293.78 1305.84 2288.26 1306.88 2281.9 1306.88Z" stroke="black" stroke-width="3.61534" mask="url(#path-13-outside-1_113_172)"/>
<defs>
<filter id="filter0_d_113_172" x="518.624" y="780.242" width="1415.99" height="119.059" filterUnits="userSpaceOnUse" color-interpolation-filters="sRGB">
<feFlood flood-opacity="0" result="BackgroundImageFix"/>
<feColorMatrix in="SourceAlpha" type="matrix" values="0 0 0 0 0 0 0 0 0 0 0 0 0 0 0 0 0 0 127 0" result="hardAlpha"/>
<feOffset dx="5.77957" dy="11.5591"/>
<feGaussianBlur stdDeviation="5.77957"/>
<feComposite in2="hardAlpha" operator="out"/>
<feColorMatrix type="matrix" values="0 0 0 0 0 0 0 0 0 0 0 0 0 0 0 0 0 0 0.25 0"/>
<feBlend mode="normal" in2="BackgroundImageFix" result="effect1_dropShadow_113_172"/>
<feBlend mode="normal" in="SourceGraphic" in2="effect1_dropShadow_113_172" result="shape"/>
</filter>
<filter id="filter1_d_113_172" x="520.936" y="203.441" width="1388.25" height="544.476" filterUnits="userSpaceOnUse" color-interpolation-filters="sRGB">
<feFlood flood-opacity="0" result="BackgroundImageFix"/>
<feColorMatrix in="SourceAlpha" type="matrix" values="0 0 0 0 0 0 0 0 0 0 0 0 0 0 0 0 0 0 127 0" result="hardAlpha"/>
<feOffset dx="5.77957" dy="11.5591"/>
<feGaussianBlur stdDeviation="5.77957"/>
<feComposite in2="hardAlpha" operator="out"/>
<feColorMatrix type="matrix" values="0 0 0 0 0 0 0 0 0 0 0 0 0 0 0 0 0 0 0.25 0"/>
<feBlend mode="normal" in2="BackgroundImageFix" result="effect1_dropShadow_113_172"/>
<feBlend mode="normal" in="SourceGraphic" in2="effect1_dropShadow_113_172" result="shape"/>
</filter>
<filter id="filter2_d_113_172" x="1496.91" y="203.441" width="409.638" height="540.958" filterUnits="userSpaceOnUse" color-interpolation-filters="sRGB">
<feFlood flood-opacity="0" result="BackgroundImageFix"/>
<feColorMatrix in="SourceAlpha" type="matrix" values="0 0 0 0 0 0 0 0 0 0 0 0 0 0 0 0 0 0 127 0" result="hardAlpha"/>
<feOffset dx="4.89998" dy="9.79996"/>
<feGaussianBlur stdDeviation="4.89998"/>
<feComposite in2="hardAlpha" operator="out"/>
<feColorMatrix type="matrix" values="0 0 0 0 0 0 0 0 0 0 0 0 0 0 0 0 0 0 0.25 0"/>
<feBlend mode="normal" in2="BackgroundImageFix" result="effect1_dropShadow_113_172"/>
<feBlend mode="normal" in="SourceGraphic" in2="effect1_dropShadow_113_172" result="shape"/>
</filter>
<filter id="filter3_d_113_172" x="957.917" y="203.441" width="512.538" height="540.958" filterUnits="userSpaceOnUse" color-interpolation-filters="sRGB">
<feFlood flood-opacity="0" result="BackgroundImageFix"/>
<feColorMatrix in="SourceAlpha" type="matrix" values="0 0 0 0 0 0 0 0 0 0 0 0 0 0 0 0 0 0 127 0" result="hardAlpha"/>
<feOffset dx="4.89998" dy="9.79996"/>
<feGaussianBlur stdDeviation="4.89998"/>
<feComposite in2="hardAlpha" operator="out"/>
<feColorMatrix type="matrix" values="0 0 0 0 0 0 0 0 0 0 0 0 0 0 0 0 0 0 0.25 0"/>
<feBlend mode="normal" in2="BackgroundImageFix" result="effect1_dropShadow_113_172"/>
<feBlend mode="normal" in="SourceGraphic" in2="effect1_dropShadow_113_172" result="shape"/>
</filter>
<filter id="filter4_d_113_172" x="521.816" y="203.441" width="409.638" height="540.958" filterUnits="userSpaceOnUse" color-interpolation-filters="sRGB">
<feFlood flood-opacity="0" result="BackgroundImageFix"/>
<feColorMatrix in="SourceAlpha" type="matrix" values="0 0 0 0 0 0 0 0 0 0 0 0 0 0 0 0 0 0 127 0" result="hardAlpha"/>
<feOffset dx="4.89998" dy="9.79996"/>
<feGaussianBlur stdDeviation="4.89998"/>
<feComposite in2="hardAlpha" operator="out"/>
<feColorMatrix type="matrix" values="0 0 0 0 0 0 0 0 0 0 0 0 0 0 0 0 0 0 0.25 0"/>
<feBlend mode="normal" in2="BackgroundImageFix" result="effect1_dropShadow_113_172"/>
<feBlend mode="normal" in="SourceGraphic" in2="effect1_dropShadow_113_172" result="shape"/>
</filter>
<filter id="filter5_d_113_172" x="71.2844" y="193.037" width="2288.96" height="657.716" filterUnits="userSpaceOnUse" color-interpolation-filters="sRGB">
<feFlood flood-opacity="0" result="BackgroundImageFix"/>
<feColorMatrix in="SourceAlpha" type="matrix" values="0 0 0 0 0 0 0 0 0 0 0 0 0 0 0 0 0 0 127 0" result="hardAlpha"/>
<feOffset dx="5.77957" dy="11.5591"/>
<feGaussianBlur stdDeviation="5.77957"/>
<feComposite in2="hardAlpha" operator="out"/>
<feColorMatrix type="matrix" values="0 0 0 0 0 0 0 0 0 0 0 0 0 0 0 0 0 0 0.25 0"/>
<feBlend mode="normal" in2="BackgroundImageFix" result="effect1_dropShadow_113_172"/>
<feBlend mode="normal" in="SourceGraphic" in2="effect1_dropShadow_113_172" result="shape"/>
</filter>
<linearGradient id="paint0_linear_113_172" x1="1209.86" y1="0" x2="1209.86" y2="1075" gradientUnits="userSpaceOnUse">
<stop stop-color="#1D2953"/>
<stop offset="0.77" stop-color="#0C1535"/>
<stop offset="1" stop-color="#050A20"/>
</linearGradient>
<linearGradient id="paint1_linear_113_172" x1="1156.69" y1="763.481" x2="1160.16" y2="932.822" gradientUnits="userSpaceOnUse">
<stop stop-color="white"/>
<stop offset="1" stop-color="#999999"/>
</linearGradient>
<linearGradient id="paint2_linear_113_172" x1="1156.69" y1="763.481" x2="1160.16" y2="932.822" gradientUnits="userSpaceOnUse">
<stop stop-color="white"/>
<stop offset="1" stop-color="#999999"/>
</linearGradient>
<linearGradient id="paint3_linear_113_172" x1="1156.69" y1="763.481" x2="1160.16" y2="932.822" gradientUnits="userSpaceOnUse">
<stop stop-color="white"/>
<stop offset="1" stop-color="#999999"/>
</linearGradient>
<linearGradient id="paint4_linear_113_172" x1="1156.69" y1="763.481" x2="1160.16" y2="932.822" gradientUnits="userSpaceOnUse">
<stop stop-color="white"/>
<stop offset="1" stop-color="#999999"/>
</linearGradient>
<linearGradient id="paint5_linear_113_172" x1="1156.69" y1="763.481" x2="1160.16" y2="932.822" gradientUnits="userSpaceOnUse">
<stop stop-color="white"/>
<stop offset="1" stop-color="#999999"/>
</linearGradient>
<linearGradient id="paint6_linear_113_172" x1="1156.69" y1="763.481" x2="1160.16" y2="932.822" gradientUnits="userSpaceOnUse">
<stop stop-color="white"/>
<stop offset="1" stop-color="#999999"/>
</linearGradient>
<linearGradient id="paint7_linear_113_172" x1="1156.69" y1="763.481" x2="1160.16" y2="932.822" gradientUnits="userSpaceOnUse">
<stop stop-color="white"/>
<stop offset="1" stop-color="#999999"/>
</linearGradient>
<linearGradient id="paint8_linear_113_172" x1="1156.69" y1="763.481" x2="1160.16" y2="932.822" gradientUnits="userSpaceOnUse">
<stop stop-color="white"/>
<stop offset="1" stop-color="#999999"/>
</linearGradient>
<linearGradient id="paint9_linear_113_172" x1="1156.69" y1="763.481" x2="1160.16" y2="932.822" gradientUnits="userSpaceOnUse">
<stop stop-color="white"/>
<stop offset="1" stop-color="#999999"/>
</linearGradient>
<linearGradient id="paint10_linear_113_172" x1="1156.69" y1="763.481" x2="1160.16" y2="932.822" gradientUnits="userSpaceOnUse">
<stop stop-color="white"/>
<stop offset="1" stop-color="#999999"/>
</linearGradient>
<linearGradient id="paint11_linear_113_172" x1="1156.69" y1="763.481" x2="1160.16" y2="932.822" gradientUnits="userSpaceOnUse">
<stop stop-color="white"/>
<stop offset="1" stop-color="#999999"/>
</linearGradient>
<linearGradient id="paint12_linear_113_172" x1="1156.69" y1="763.481" x2="1160.16" y2="932.822" gradientUnits="userSpaceOnUse">
<stop stop-color="white"/>
<stop offset="1" stop-color="#999999"/>
</linearGradient>
<linearGradient id="paint13_linear_113_172" x1="1156.69" y1="763.481" x2="1160.16" y2="932.822" gradientUnits="userSpaceOnUse">
<stop stop-color="white"/>
<stop offset="1" stop-color="#999999"/>
</linearGradient>
<linearGradient id="paint14_linear_113_172" x1="1156.69" y1="763.481" x2="1160.16" y2="932.822" gradientUnits="userSpaceOnUse">
<stop stop-color="white"/>
<stop offset="1" stop-color="#999999"/>
</linearGradient>
<linearGradient id="paint15_linear_113_172" x1="1156.69" y1="763.481" x2="1160.16" y2="932.822" gradientUnits="userSpaceOnUse">
<stop stop-color="white"/>
<stop offset="1" stop-color="#999999"/>
</linearGradient>
<linearGradient id="paint16_linear_113_172" x1="1156.69" y1="763.481" x2="1160.16" y2="932.822" gradientUnits="userSpaceOnUse">
<stop stop-color="white"/>
<stop offset="1" stop-color="#999999"/>
</linearGradient>
<linearGradient id="paint17_linear_113_172" x1="1156.69" y1="763.481" x2="1160.16" y2="932.822" gradientUnits="userSpaceOnUse">
<stop stop-color="white"/>
<stop offset="1" stop-color="#999999"/>
</linearGradient>
<linearGradient id="paint18_linear_113_172" x1="1156.69" y1="763.481" x2="1160.16" y2="932.822" gradientUnits="userSpaceOnUse">
<stop stop-color="white"/>
<stop offset="1" stop-color="#999999"/>
</linearGradient>
<linearGradient id="paint19_linear_113_172" x1="1156.69" y1="763.481" x2="1160.16" y2="932.822" gradientUnits="userSpaceOnUse">
<stop stop-color="white"/>
<stop offset="1" stop-color="#999999"/>
</linearGradient>
<linearGradient id="paint20_linear_113_172" x1="1156.69" y1="763.481" x2="1160.16" y2="932.822" gradientUnits="userSpaceOnUse">
<stop stop-color="white"/>
<stop offset="1" stop-color="#999999"/>
</linearGradient>
<linearGradient id="paint21_linear_113_172" x1="1156.69" y1="763.481" x2="1160.16" y2="932.822" gradientUnits="userSpaceOnUse">
<stop stop-color="white"/>
<stop offset="1" stop-color="#999999"/>
</linearGradient>
<linearGradient id="paint22_linear_113_172" x1="1696.83" y1="203.441" x2="1664.58" y2="724.66" gradientUnits="userSpaceOnUse">
<stop offset="0.215" stop-color="white"/>
<stop offset="1" stop-color="#999999"/>
</linearGradient>
<linearGradient id="paint23_linear_113_172" x1="1209.29" y1="203.441" x2="1183.73" y2="725.404" gradientUnits="userSpaceOnUse">
<stop offset="0.215" stop-color="white"/>
<stop offset="1" stop-color="#999999"/>
</linearGradient>
<linearGradient id="paint24_linear_113_172" x1="721.735" y1="203.441" x2="689.483" y2="724.66" gradientUnits="userSpaceOnUse">
<stop offset="0.215" stop-color="white"/>
<stop offset="1" stop-color="#999999"/>
</linearGradient>
<linearGradient id="paint25_linear_113_172" x1="256.87" y1="193.038" x2="256.87" y2="379.14" gradientUnits="userSpaceOnUse">
<stop stop-color="#FEEC02"/>
<stop offset="0.5" stop-color="#AA9E01"/>
<stop offset="1" stop-color="#847B0B"/>
</linearGradient>
<linearGradient id="paint26_linear_113_172" x1="2163.1" y1="193.038" x2="2163.1" y2="379.14" gradientUnits="userSpaceOnUse">
<stop stop-color="#FEEC02"/>
<stop offset="0.5" stop-color="#AA9E01"/>
<stop offset="1" stop-color="#847B0B"/>
</linearGradient>
<linearGradient id="paint27_linear_113_172" x1="256.87" y1="417.285" x2="256.87" y2="603.387" gradientUnits="userSpaceOnUse">
<stop stop-color="#069136"/>
<stop offset="0.5" stop-color="#056B29"/>
<stop offset="1" stop-color="#01491A"/>
</linearGradient>
<linearGradient id="paint28_linear_113_172" x1="2163.1" y1="417.285" x2="2163.1" y2="603.387" gradientUnits="userSpaceOnUse">
<stop stop-color="#069136"/>
<stop offset="0.5" stop-color="#056B29"/>
<stop offset="1" stop-color="#01491A"/>
</linearGradient>
<linearGradient id="paint29_linear_113_172" x1="256.87" y1="641.533" x2="256.87" y2="827.635" gradientUnits="userSpaceOnUse">
<stop stop-color="#DF000C"/>
<stop offset="0.5" stop-color="#B3020C"/>
<stop offset="1" stop-color="#861017"/>
</linearGradient>
<linearGradient id="paint30_linear_113_172" x1="2163.1" y1="641.532" x2="2163.1" y2="827.635" gradientUnits="userSpaceOnUse">
<stop stop-color="#DF000C"/>
<stop offset="0.5" stop-color="#B3020C"/>
<stop offset="1" stop-color="#861017"/>
</linearGradient>
<linearGradient id="paint31_linear_113_172" x1="1211.3" y1="981.161" x2="1211.3" y2="1672.52" gradientUnits="userSpaceOnUse">
<stop stop-color="white"/>
<stop offset="1" stop-color="#999999"/>
</linearGradient>
</defs>
</svg>
